<svg id="Calque_2" data-name="Calque 2" xmlns="http://www.w3.org/2000/svg" viewBox="0 0 341 177"><defs><style>.cls-1{fill:#e0dccc;}.cls-2{fill:#4e473e;}</style></defs><title>logo-ac-vect</title><path class="cls-1" d="M12.85,54.85l7,18.57c.42,1.1.76,1.94,1,2.53a1.76,1.76,0,0,0,1.09.86,4.17,4.17,0,0,0,1.3.33c.09,0,.14.22.14.67a1.07,1.07,0,0,1-.07.35C21,78,19.73,78,19.49,78l-4.07.17a.77.77,0,0,1-.13-.58c0-.29.07-.44.16-.44A4.34,4.34,0,0,0,16.5,77c.43-.12.67-.27.74-.46a2.2,2.2,0,0,0,.07-.56,5.73,5.73,0,0,0-.12-1.08c-.08-.41-.16-.73-.23-1l-.14-.39-1.44-4a.26.26,0,0,0-.21-.14c-.92-.07-1.81-.11-2.67-.11q-1.83,0-4.47.18l-.17.1L6.34,73.45a9.45,9.45,0,0,0-.59,2.43.82.82,0,0,0,.28.7,2.62,2.62,0,0,0,1,.4,5,5,0,0,0,1,.16q.11,0,.12.42a1.86,1.86,0,0,1,0,.6L4.52,78q-.7,0-1.23,0l-1.18.07-1.25.07a.77.77,0,0,1-.14-.53c0-.32.05-.49.14-.49A4.86,4.86,0,0,0,2,77a1.65,1.65,0,0,0,.91-.5,13.64,13.64,0,0,0,1.66-3.3l6.11-15.72c0-.11.11-.3.2-.56s.14-.45.19-.58.12-.29.21-.49a2.26,2.26,0,0,1,.25-.44l.26-.32a.88.88,0,0,1,.35-.24,1.23,1.23,0,0,1,.44-.07ZM8.77,67.54c1.22,0,2.05.07,2.5.07,1,0,2.09,0,3.2-.1l.1-.18-2.85-7.77-3,7.84C8.7,67.5,8.72,67.54,8.77,67.54Z"/><path class="cls-1" d="M44.11,59.63a13.25,13.25,0,0,0-.25-3.09c-.07-.19-.47-.37-1.21-.54a7.75,7.75,0,0,0-1.57-.27c-.09,0-.14-.13-.14-.4a.83.83,0,0,1,.14-.55l1.83.13c.92.05,1.69.08,2.32.08s1.38,0,2.31-.1,1.47-.11,1.63-.11a1.62,1.62,0,0,1,.07.53c0,.28-.05.42-.14.42a9.76,9.76,0,0,0-1.53.28c-.78.19-1.2.37-1.25.53A14,14,0,0,0,46,59.81V73.17c0,1.45,0,3.09.11,4.92a1.08,1.08,0,0,1-.67.14,1.51,1.51,0,0,1-1.16-.81L30.68,58.09v15a15.16,15.16,0,0,0,.24,3.27c0,.16.44.33,1.18.51a8.74,8.74,0,0,0,1.46.26q.11,0,.12.42a1.42,1.42,0,0,1,0,.6c-2.34-.12-3.69-.17-4-.17l-4,.17a.82.82,0,0,1-.11-.53c0-.32,0-.49.11-.49a8.38,8.38,0,0,0,1.6-.26c.73-.18,1.14-.37,1.21-.58A10.64,10.64,0,0,0,28.71,73V59.18a10.46,10.46,0,0,0-.25-2.64c-.07-.19-.47-.36-1.19-.51a9.14,9.14,0,0,0-1.58-.23c-.1,0-.14-.14-.14-.44a.83.83,0,0,1,.14-.58c1.82,0,3,.07,3.58.07,1.22,0,2.16,0,2.81-.07Q33.39,57.18,44,72a8.44,8.44,0,0,0,.11-1.44Z"/><path class="cls-1" d="M50.8,66.74a12.09,12.09,0,0,1,3.34-8.57,10.79,10.79,0,0,1,8.19-3.56,36.71,36.71,0,0,1,8.33,1.58c.09,2.67.14,4.12.14,4.36s-.25.53-.74.53a.5.5,0,0,1-.46-.18q-.94-4.82-7.17-4.82a7.21,7.21,0,0,0-5.87,3,11.75,11.75,0,0,0,.23,14.4,7.92,7.92,0,0,0,6.49,3.28A10.25,10.25,0,0,0,67.85,76c.16-.07.24-.24.24-.53l0-2.88v-.24a10.58,10.58,0,0,0-.28-3c-.1-.23-.48-.42-1.15-.56a8.1,8.1,0,0,0-1.56-.21c-.09,0-.14-.15-.14-.44a.87.87,0,0,1,.14-.58l4.6.17c.19,0,1.46-.05,3.8-.17a1.45,1.45,0,0,1,.07.49c0,.35-.05.53-.14.53a4.31,4.31,0,0,0-1,.23,5.73,5.73,0,0,0-1.07.4c-.23.17-.35,1-.35,2.36,0,.49,0,1,0,1.6s.06.88.06.93a3.28,3.28,0,0,0,.24,1.23,3.25,3.25,0,0,1,.25.7c0,.19-.3.4-.88.63q-.08,0-.69.27l-.79.3-.79.26a7.75,7.75,0,0,1-1,.26l-1.06.22c-.45.09-.89.15-1.3.19l-1.44.1q-.82.06-1.74.06a10.52,10.52,0,0,1-7.89-3.41A11.36,11.36,0,0,1,50.8,66.74Z"/><path class="cls-1" d="M79.15,55c1.06,0,2.89,0,5.49-.14s4.56-.14,5.87-.14a26.91,26.91,0,0,0,.54,2.69c.27,1.11.43,1.81.48,2.09a.88.88,0,0,1-.63.18c-.31,0-.47-.08-.5-.25a3.93,3.93,0,0,0-1.47-2.48,5.3,5.3,0,0,0-2.6-.54H84c-2,0-3,.15-3.09.46a16.23,16.23,0,0,0-.18,3v5.62c0,.15.5.22,1.51.22H85.5a3.21,3.21,0,0,0,.93-.15l.63-.17c.1,0,.22-.18.37-.46a2.45,2.45,0,0,0,.27-.61c0-.13.1-.47.24-1,0-.16.2-.24.53-.24a.88.88,0,0,1,.6.17v6.65a.84.84,0,0,1-.56.14c-.31,0-.5-.09-.57-.28a14.76,14.76,0,0,0-.42-1.43,2.28,2.28,0,0,0-.26-.56,2.73,2.73,0,0,0-.3-.23,12.67,12.67,0,0,0-3.73-.28c-1.69,0-2.53.11-2.53.32V73a11.08,11.08,0,0,0,.32,3.2c.07.23.86.35,2.39.35H85.1a10.89,10.89,0,0,0,4.42-.6,3.67,3.67,0,0,0,1.18-1.25,8,8,0,0,0,1-2.3c.05-.14.21-.21.49-.21a1.29,1.29,0,0,1,.88.21c-.12.31-.3.79-.54,1.46S92.13,75,92,75.44s-.3.88-.46,1.42a8.36,8.36,0,0,0-.32,1.34c-1.19,0-3.08,0-5.66-.07s-4.69-.07-6.33-.07l-4.25.1a.91.91,0,0,1-.11-.56c0-.31,0-.46.11-.46a5.72,5.72,0,0,0,1.35-.24,1.85,1.85,0,0,0,1.08-.57,11.39,11.39,0,0,0,.24-3.3V59.74a13.56,13.56,0,0,0-.24-3c-.07-.19-.42-.37-1-.53A5.83,5.83,0,0,0,75,55.94c-.09,0-.14-.14-.14-.42a.94.94,0,0,1,.14-.6C76.19,55,77.58,55,79.15,55Zm3.24-3A7.6,7.6,0,0,1,84,50.18a26.23,26.23,0,0,1,2.56-2.29,1.47,1.47,0,0,1,.63-.1,2.38,2.38,0,0,1,1.38.33.91.91,0,0,1,.45.72c0,.54-.93,1.28-2.81,2.22a12.86,12.86,0,0,1-3.48,1.4C82.51,52.46,82.39,52.31,82.39,52Z"/><path class="cls-1" d="M99.06,55c.47,0,.93,0,1.37,0l1.44-.09,1.27-.09a1.62,1.62,0,0,1,.07.53c0,.33,0,.49-.14.49a5.67,5.67,0,0,0-1.27.25c-.61.16-.93.33-1,.49a13.61,13.61,0,0,0-.32,3.27V73.06a12.72,12.72,0,0,0,.32,3.1c.07.23.87.35,2.39.35h1.69a11,11,0,0,0,4.43-.6,3.87,3.87,0,0,0,1.18-1.25,8.26,8.26,0,0,0,1-2.3c0-.14.21-.21.49-.21a1.29,1.29,0,0,1,.88.21c-.11.31-.3.79-.54,1.46s-.44,1.21-.58,1.62-.29.88-.46,1.42A8.17,8.17,0,0,0,111,78.2c-1.22,0-3.13,0-5.72-.11S100.62,78,99,78l-4.26.1a.93.93,0,0,1-.1-.56c0-.31,0-.46.1-.46a6.26,6.26,0,0,0,1.37-.21c.59-.14.94-.32,1.06-.53a11.39,11.39,0,0,0,.24-3.3V59.74a14.72,14.72,0,0,0-.24-3.2c-.07-.19-.41-.36-1-.51a6.21,6.21,0,0,0-1.36-.23c-.09,0-.14-.15-.14-.46a.84.84,0,0,1,.14-.56l1.87.13C97.64,55,98.43,55,99.06,55Z"/><path class="cls-1" d="M117.1,59.67a14.13,14.13,0,0,0-.25-3.13c-.07-.19-.4-.36-1-.51a6.21,6.21,0,0,0-1.36-.23c-.09,0-.14-.15-.14-.46a.84.84,0,0,1,.14-.56l4.22.18q.57,0,4.08-.18a1.62,1.62,0,0,1,.07.53c0,.33,0,.49-.14.49a5.52,5.52,0,0,0-1.26.25c-.61.16-.94.33-1,.49a13.61,13.61,0,0,0-.32,3.27V73.17a13.61,13.61,0,0,0,.32,3.27c0,.16.38.32,1,.47a5.71,5.71,0,0,0,1.26.23c.09,0,.14.18.14.53a1.45,1.45,0,0,1-.07.49c-2.34-.12-3.7-.17-4.08-.17-.11,0-1.52.05-4.22.17a.77.77,0,0,1-.14-.53c0-.32.05-.49.14-.49a6.54,6.54,0,0,0,1.36-.21c.6-.14.93-.3,1-.49a14.13,14.13,0,0,0,.25-3.13Z"/><path class="cls-1" d="M147.7,81a8.31,8.31,0,0,0,1.16-.07l.85-.14a2.21,2.21,0,0,1,.38-.07c.28,0,.42.23.42.7v.18a12.5,12.5,0,0,1-5.9,1.23,8.89,8.89,0,0,1-3.68-.92c-1.32-.61-2.72-1.33-4.18-2.16a19.76,19.76,0,0,0-3.64-1.7,9.77,9.77,0,0,1-2.6-1.31,15.35,15.35,0,0,1-2.64-2.32,11.11,11.11,0,0,1-2.12-3.49,12.34,12.34,0,0,1,2.46-12.84,10.77,10.77,0,0,1,15.87,0,12.53,12.53,0,0,1,.72,16.09c-1.72,2.11-3.49,3.34-5.29,3.69.63.3,1.51.79,2.62,1.44a14.16,14.16,0,0,0,2.79,1.34A9.61,9.61,0,0,0,147.7,81ZM135.61,56.08A6.19,6.19,0,0,0,130.26,59a11.7,11.7,0,0,0-2,6.73,13.55,13.55,0,0,0,2.28,7.77,7.1,7.1,0,0,0,6.16,3.38A6.17,6.17,0,0,0,142.06,74a11.82,11.82,0,0,0,2-6.77,13.46,13.46,0,0,0-2.28-7.75A7.08,7.08,0,0,0,135.61,56.08Z"/><path class="cls-1" d="M153.3,55q.55,0,4.08-.18a1.81,1.81,0,0,1,.07.49c0,.36,0,.53-.14.53a5.57,5.57,0,0,0-1.27.25c-.61.16-.94.33-1,.49a13.12,13.12,0,0,0-.32,3.27v7.84A10.62,10.62,0,0,0,156.43,74a5.53,5.53,0,0,0,4.78,2.35q6,0,6-7.91V59.63a13.25,13.25,0,0,0-.25-3.09c-.07-.19-.47-.37-1.21-.54a7.79,7.79,0,0,0-1.56-.27c-.1,0-.14-.13-.14-.4a.77.77,0,0,1,.14-.55l1.82.13c.92.05,1.69.08,2.32.08s1.38,0,2.31-.1,1.47-.11,1.63-.11a1.62,1.62,0,0,1,.07.53c0,.28,0,.42-.14.42a9.76,9.76,0,0,0-1.53.28c-.78.19-1.2.37-1.25.53a14.58,14.58,0,0,0-.28,3.27v8.54c0,3.64-.76,6.16-2.28,7.58a9.2,9.2,0,0,1-6.51,2.13,8.24,8.24,0,0,1-6.43-2.47c-1.5-1.64-2.25-4.28-2.25-7.94v-8a13.53,13.53,0,0,0-.25-3.13c-.07-.19-.4-.36-1-.51a6.23,6.23,0,0,0-1.35-.23c-.09,0-.14-.15-.14-.46a.84.84,0,0,1,.14-.56Z"/><path class="cls-1" d="M178.86,55c1.06,0,2.88,0,5.48-.14s4.56-.14,5.88-.14a26.91,26.91,0,0,0,.54,2.69c.27,1.11.43,1.81.48,2.09a.89.89,0,0,1-.64.18c-.3,0-.47-.08-.49-.25a3.89,3.89,0,0,0-1.48-2.48,5.27,5.27,0,0,0-2.6-.54h-2.35c-2,0-3.05.15-3.1.46a16.5,16.5,0,0,0-.17,3v5.62c0,.15.5.22,1.51.22h3.29a3.21,3.21,0,0,0,.93-.15l.63-.17c.09,0,.22-.18.37-.46a2.31,2.31,0,0,0,.26-.61c0-.13.11-.47.25-1,0-.16.2-.24.53-.24a.83.83,0,0,1,.59.17v6.65a.82.82,0,0,1-.56.14c-.3,0-.49-.09-.56-.28-.16-.63-.31-1.11-.42-1.43a2.16,2.16,0,0,0-.27-.56,1.79,1.79,0,0,0-.29-.23,12.67,12.67,0,0,0-3.73-.28c-1.69,0-2.53.11-2.53.32V73a11.17,11.17,0,0,0,.31,3.2c.07.23.87.35,2.39.35h1.69a10.92,10.92,0,0,0,4.43-.6,3.76,3.76,0,0,0,1.18-1.25,8.27,8.27,0,0,0,1-2.3c0-.14.21-.21.49-.21a1.31,1.31,0,0,1,.88.21l-.55,1.46c-.24.67-.44,1.21-.58,1.62s-.29.88-.45,1.42a8.36,8.36,0,0,0-.32,1.34c-1.2,0-3.08,0-5.66-.07s-4.69-.07-6.33-.07l-4.25.1a.91.91,0,0,1-.11-.56c0-.31,0-.46.11-.46A5.8,5.8,0,0,0,176,76.9a1.81,1.81,0,0,0,1.07-.57,10.83,10.83,0,0,0,.25-3.3V59.74a12.84,12.84,0,0,0-.25-3c-.07-.19-.41-.37-1-.53a5.91,5.91,0,0,0-1.39-.25c-.1,0-.14-.14-.14-.42a.88.88,0,0,1,.14-.6C175.89,55,177.29,55,178.86,55Z"/><path class="cls-1" d="M223.93,71.62a22.39,22.39,0,0,1-.49,2.69,7.52,7.52,0,0,1-.7,2.41q-2.58,1.55-8.41,1.55a10.52,10.52,0,0,1-7.89-3.41,11.36,11.36,0,0,1-3.25-8.12,12.09,12.09,0,0,1,3.34-8.57,10.8,10.8,0,0,1,8.19-3.56,43.16,43.16,0,0,1,8.54.88c0,3.14-.07,4.82-.07,5.06s-.24.53-.74.53a.48.48,0,0,1-.45-.18,8.78,8.78,0,0,0-.27-.93,5.05,5.05,0,0,0-.66-1.23,5.11,5.11,0,0,0-1.24-1.3,6.52,6.52,0,0,0-2-.95,10.11,10.11,0,0,0-3-.41,7.32,7.32,0,0,0-5.88,3A10.78,10.78,0,0,0,206.53,66a13.77,13.77,0,0,0,1,5.24,9.24,9.24,0,0,0,3.11,4,8.31,8.31,0,0,0,5,1.56,7,7,0,0,0,5.38-2,5,5,0,0,0,.86-1.39c.25-.58.43-1.06.56-1.44s.23-.58.3-.58a2.12,2.12,0,0,1,.51.07,2.24,2.24,0,0,1,.47.14Z"/><path class="cls-1" d="M237.54,54.85l7,18.57c.42,1.1.76,1.94,1,2.53a1.76,1.76,0,0,0,1.09.86,4.17,4.17,0,0,0,1.3.33c.09,0,.14.22.14.67a1.43,1.43,0,0,1-.07.35c-2.35-.12-3.63-.17-3.87-.17l-4.08.17a.83.83,0,0,1-.12-.58c0-.29.06-.44.16-.44a4.34,4.34,0,0,0,1.05-.17c.42-.12.67-.27.74-.46A2.2,2.2,0,0,0,242,76a5.73,5.73,0,0,0-.12-1.08c-.08-.41-.16-.73-.23-1l-.14-.39-1.44-4a.26.26,0,0,0-.21-.14c-.92-.07-1.81-.11-2.68-.11-1.21,0-2.7.06-4.46.18l-.18.1L231,73.45a9.18,9.18,0,0,0-.6,2.43.82.82,0,0,0,.29.7,2.62,2.62,0,0,0,1,.4,4.84,4.84,0,0,0,1,.16c.08,0,.12.14.13.42a1.86,1.86,0,0,1,0,.6L229.2,78q-.69,0-1.23,0l-1.17.07-1.25.07a.72.72,0,0,1-.14-.53c0-.32,0-.49.14-.49a4.86,4.86,0,0,0,1.09-.17,1.69,1.69,0,0,0,.91-.5,14.08,14.08,0,0,0,1.65-3.3l6.12-15.72a5.68,5.68,0,0,0,.19-.56c.09-.26.15-.45.2-.58a5.08,5.08,0,0,1,.21-.49,1.84,1.84,0,0,1,.25-.44c.07-.09.15-.2.26-.32a.82.82,0,0,1,.35-.24,1.23,1.23,0,0,1,.44-.07Zm-4.08,12.69c1.22,0,2,.07,2.49.07,1,0,2.1,0,3.2-.1l.11-.18-2.85-7.77-3,7.84C233.39,67.5,233.41,67.54,233.46,67.54Z"/><path class="cls-1" d="M254.78,55c.47,0,.93,0,1.37,0l1.44-.09,1.27-.09a1.62,1.62,0,0,1,.07.53c0,.33-.05.49-.14.49a5.67,5.67,0,0,0-1.27.25c-.6.16-.93.33-1,.49a13.61,13.61,0,0,0-.32,3.27V73.06a12.72,12.72,0,0,0,.32,3.1c.07.23.87.35,2.39.35h1.69a11,11,0,0,0,4.43-.6,3.87,3.87,0,0,0,1.18-1.25,8.26,8.26,0,0,0,1-2.3c.05-.14.21-.21.49-.21a1.29,1.29,0,0,1,.88.21c-.11.31-.3.79-.54,1.46s-.44,1.21-.58,1.62-.29.88-.46,1.42a8.17,8.17,0,0,0-.31,1.34c-1.22,0-3.13,0-5.72-.11s-4.68-.1-6.27-.1l-4.26.1a.93.93,0,0,1-.1-.56c0-.31,0-.46.1-.46a6.26,6.26,0,0,0,1.37-.21c.59-.14.94-.32,1.06-.53a11.21,11.21,0,0,0,.25-3.3V59.74a14.55,14.55,0,0,0-.25-3.2c-.07-.19-.41-.36-1-.51a6.21,6.21,0,0,0-1.36-.23c-.09,0-.14-.15-.14-.46a.84.84,0,0,1,.14-.56l1.87.13C253.36,55,254.15,55,254.78,55Z"/><path class="cls-1" d="M274.39,55c1.06,0,2.89,0,5.49-.14s4.56-.14,5.87-.14a26.91,26.91,0,0,0,.54,2.69c.27,1.11.43,1.81.48,2.09a.89.89,0,0,1-.64.18c-.3,0-.46-.08-.49-.25a3.93,3.93,0,0,0-1.47-2.48,5.31,5.31,0,0,0-2.61-.54h-2.35c-2,0-3,.15-3.09.46a16.23,16.23,0,0,0-.18,3v5.73c0,.14.49.21,1.48.21h1.86a7.18,7.18,0,0,0,2.88-.33,3.31,3.31,0,0,0,.92-1.92,1.42,1.42,0,0,1,.07-.32c0-.16.2-.24.52-.24a.86.86,0,0,1,.6.17v6.82a.77.77,0,0,1-.56.15c-.31,0-.49-.1-.56-.29-.17-.63-.31-1.1-.43-1.42a1.8,1.8,0,0,0-.26-.56,1.87,1.87,0,0,0-.3-.23,12.15,12.15,0,0,0-3.72-.28c-1.67,0-2.5.1-2.5.31v5.56a13.12,13.12,0,0,0,.32,3.27c0,.16.37.32,1,.47a5.77,5.77,0,0,0,1.27.23c.09,0,.14.18.14.53a1.75,1.75,0,0,1-.07.49c-2.35-.12-3.71-.17-4.08-.17-.12,0-1.53.05-4.22.17a.77.77,0,0,1-.14-.53c0-.32.05-.49.14-.49a6.46,6.46,0,0,0,1.35-.21c.6-.14.93-.3,1-.49a13.76,13.76,0,0,0,.25-3.17V59.74a12.84,12.84,0,0,0-.25-3c-.07-.19-.41-.37-1-.53a5.83,5.83,0,0,0-1.39-.25c-.09,0-.14-.14-.14-.42a.94.94,0,0,1,.14-.6C271.43,55,272.82,55,274.39,55Z"/><path class="cls-1" d="M298,54.85l7,18.57c.42,1.1.76,1.94,1,2.53a1.79,1.79,0,0,0,1.09.86,4.23,4.23,0,0,0,1.3.33c.1,0,.14.22.14.67a1.07,1.07,0,0,1-.07.35c-2.34-.12-3.63-.17-3.86-.17l-4.08.17a.77.77,0,0,1-.13-.58c0-.29.07-.44.16-.44a4.41,4.41,0,0,0,1.06-.17c.42-.12.67-.27.74-.46a2.77,2.77,0,0,0,.07-.56,5.08,5.08,0,0,0-.13-1.08,7.62,7.62,0,0,0-.23-1l-.14-.39-1.44-4a.26.26,0,0,0-.21-.14c-.91-.07-1.8-.11-2.67-.11-1.22,0-2.71.06-4.46.18l-.18.1-1.51,3.87a9.18,9.18,0,0,0-.6,2.43.82.82,0,0,0,.28.7,2.62,2.62,0,0,0,1,.4,5,5,0,0,0,1,.16q.1,0,.12.42a1.61,1.61,0,0,1-.05.6c-2.34-.12-3.55-.17-3.62-.17q-.7,0-1.23,0l-1.18.07-1.25.07a.77.77,0,0,1-.14-.53c0-.32,0-.49.14-.49a4.78,4.78,0,0,0,1.09-.17,1.72,1.72,0,0,0,.92-.5,14.08,14.08,0,0,0,1.65-3.3l6.12-15.72c0-.11.11-.3.19-.56s.15-.45.19-.58.12-.29.21-.49a3,3,0,0,1,.25-.44l.26-.32a.91.91,0,0,1,.36-.24,1.16,1.16,0,0,1,.44-.07ZM293.9,67.54c1.22,0,2.05.07,2.5.07,1,0,2.1,0,3.2-.1l.1-.18-2.84-7.77-3,7.84C293.83,67.5,293.86,67.54,293.9,67.54Z"/><path class="cls-1" d="M314.15,54.92c1.61,0,2.93.07,4,.07s2.35,0,4-.07,2.87-.07,3.76-.07a11.06,11.06,0,0,0,2.43-.38l.67,5a1.17,1.17,0,0,1-.85.25c-.21,0-.33-.06-.35-.18A4.91,4.91,0,0,0,326.53,57a4.63,4.63,0,0,0-2.73-.58c-2.48,0-3.77.18-3.86.53a14.16,14.16,0,0,0-.32,3.52V73.17a13.61,13.61,0,0,0,.32,3.27c0,.16.37.32,1,.47a5.77,5.77,0,0,0,1.27.23c.09,0,.14.18.14.53a1.75,1.75,0,0,1-.07.49c-2.35-.12-3.71-.17-4.08-.17-.12,0-1.52.05-4.22.17a.77.77,0,0,1-.14-.53c0-.32.05-.49.14-.49a6.46,6.46,0,0,0,1.35-.21c.6-.14.94-.3,1-.49a14.28,14.28,0,0,0,.24-3.13V60.58a11.19,11.19,0,0,0-.31-3.62c-.19-.35-1.46-.53-3.8-.53a4.63,4.63,0,0,0-2.73.58,4.91,4.91,0,0,0-1.21,2.55c0,.12-.14.18-.35.18a1.13,1.13,0,0,1-.84-.25l.66-5a11.06,11.06,0,0,0,2.43.38C311.3,54.85,312.55,54.88,314.15,54.92Z"/><path class="cls-1" d="M333.88,59.67a14.28,14.28,0,0,0-.24-3.13c-.07-.19-.41-.36-1-.51a6.14,6.14,0,0,0-1.35-.23c-.09,0-.14-.15-.14-.46a.84.84,0,0,1,.14-.56l4.22.18q.56,0,4.08-.18a1.94,1.94,0,0,1,.07.53c0,.33,0,.49-.14.49a5.57,5.57,0,0,0-1.27.25c-.61.16-.94.33-1,.49a13.61,13.61,0,0,0-.32,3.27V73.17a13.61,13.61,0,0,0,.32,3.27c0,.16.37.32,1,.47a5.77,5.77,0,0,0,1.27.23c.09,0,.14.18.14.53a1.75,1.75,0,0,1-.07.49c-2.35-.12-3.71-.17-4.08-.17-.12,0-1.52.05-4.22.17a.77.77,0,0,1-.14-.53c0-.32.05-.49.14-.49a6.46,6.46,0,0,0,1.35-.21c.6-.14.94-.3,1-.49a14.28,14.28,0,0,0,.24-3.13Z"/><path class="cls-1" d="M111.31,114.82a22.39,22.39,0,0,1-.49,2.69,7.52,7.52,0,0,1-.7,2.41c-1.71,1-4.52,1.55-8.41,1.55a10.52,10.52,0,0,1-7.89-3.41,11.36,11.36,0,0,1-3.25-8.12,12.05,12.05,0,0,1,3.34-8.56,10.79,10.79,0,0,1,8.19-3.57,43.16,43.16,0,0,1,8.54.88c0,3.14-.07,4.82-.07,5.06s-.24.53-.73.53c-.24,0-.39-.06-.46-.18-.07-.31-.16-.62-.26-.93a5.55,5.55,0,0,0-.67-1.23,5.25,5.25,0,0,0-1.23-1.3,6.48,6.48,0,0,0-2-1,10.11,10.11,0,0,0-3-.41,7.29,7.29,0,0,0-5.87,3,10.73,10.73,0,0,0-2.43,6.88,13.77,13.77,0,0,0,1,5.24,9.19,9.19,0,0,0,3.12,4,8.26,8.26,0,0,0,5,1.57,7,7,0,0,0,5.38-2,5,5,0,0,0,.86-1.39c.25-.58.43-1.06.56-1.44s.23-.58.3-.58a2.12,2.12,0,0,1,.51.07,2.58,2.58,0,0,1,.48.14Z"/><path class="cls-1" d="M121.17,105.89a7.29,7.29,0,0,1,5.41,2.29,7.53,7.53,0,0,1,2.25,5.48,7.76,7.76,0,0,1-2.19,5.54,7.2,7.2,0,0,1-5.4,2.3,7.36,7.36,0,0,1-5.45-2.3,8,8,0,0,1-.07-11.06A7.27,7.27,0,0,1,121.17,105.89Zm-.39,1.37a3.56,3.56,0,0,0-3,1.71,7.18,7.18,0,0,0-1.18,4.16,8.14,8.14,0,0,0,1.5,4.94,4.27,4.27,0,0,0,3.5,2.06,3.59,3.59,0,0,0,3.06-1.76,7.37,7.37,0,0,0,1.19-4.22,7.86,7.86,0,0,0-1.51-4.86A4.36,4.36,0,0,0,120.78,107.26Z"/><path class="cls-1" d="M136.56,105.89a12.57,12.57,0,0,1,2,.2l1.63.26a20.11,20.11,0,0,1,.42,3.59c0,.11-.15.17-.45.17s-.51-.08-.53-.24a3.71,3.71,0,0,0-1-1.87,2.55,2.55,0,0,0-1.88-.88c-1.69,0-2.54.69-2.54,2.08a2.93,2.93,0,0,0,.14.93,1.94,1.94,0,0,0,.55.77,7.58,7.58,0,0,0,.62.53,9.58,9.58,0,0,0,.93.56l.89.51.83.48,1,.58a10,10,0,0,1,.82.59,4.15,4.15,0,0,1,.79.76,4.05,4.05,0,0,1,.48.84,2.57,2.57,0,0,1,.23,1,4.37,4.37,0,0,1-1.62,3.46,5.62,5.62,0,0,1-3.8,1.39,9.36,9.36,0,0,1-1.35-.09,12.43,12.43,0,0,1-1.46-.29c-.56-.14-1-.24-1.3-.29a9.93,9.93,0,0,1-.41-1.75,13.81,13.81,0,0,1-.19-1.9.88.88,0,0,1,.42-.21q.53,0,.57.21a3.93,3.93,0,0,0,1.31,2.06,3.58,3.58,0,0,0,2.41,1,2.76,2.76,0,0,0,1.85-.62,2.2,2.2,0,0,0,.72-1.77,2.72,2.72,0,0,0-.23-1.11,2.45,2.45,0,0,0-.74-.92,8.71,8.71,0,0,0-.95-.66c-.29-.18-.71-.41-1.25-.69s-.93-.5-1.19-.67c-1.83-1-2.74-2.31-2.74-3.76a3.74,3.74,0,0,1,1.53-3.09A5.61,5.61,0,0,1,136.56,105.89Z"/><path class="cls-1" d="M145.07,108.11h-2c-.12,0-.18-.25-.18-.74,0-.14,0-.22,0-.25a6.61,6.61,0,0,0,2.21-1.86,9,9,0,0,0,.76-1c.24-.38.45-.72.61-1a2.49,2.49,0,0,0,.25-.46q1,0,1.05.18v3.48l2.78,0,2,0c.19,0,.28.1.28.31a3.08,3.08,0,0,1-.35,1.34h-4.68v8.61a3.29,3.29,0,0,0,.73,2.25,2.35,2.35,0,0,0,1.88.84,4.32,4.32,0,0,0,2.18-.66c.07-.05.17,0,.31.3s.2.38.18.4a5.94,5.94,0,0,1-1.62,1.11,5,5,0,0,1-2.25.54,4,4,0,0,1-2.93-1.16,4.4,4.4,0,0,1-1.18-3.3Z"/><path class="cls-1" d="M168.93,109.27v7a13.23,13.23,0,0,0,.24,2.67.68.68,0,0,0,.39.39,2.13,2.13,0,0,0,.67.17,5.48,5.48,0,0,0,.7,0l.32,0c.07,0,.1.16.1.39a1,1,0,0,1-.09.33c0,.16-.12.23-.19.23-.35,0-.74.07-1.18.14s-.84.16-1.21.25-.73.19-1.06.28-.58.18-.77.25l-.31.07c-.19,0-.29-.19-.29-.57v-1.79l-.07-.17c-1.54,1.66-3.08,2.49-4.6,2.49a3.74,3.74,0,0,1-2.23-.65,3.83,3.83,0,0,1-1.38-1.72,10.52,10.52,0,0,1-.61-2.08,11.7,11.7,0,0,1-.18-2.09v-4.43a2.82,2.82,0,0,0-.49-1.9,1.81,1.81,0,0,0-.86-.58,3.11,3.11,0,0,0-.84-.15c-.23,0-.34,0-.34-.07,0-.57.07-.86.21-.88a40.52,40.52,0,0,0,4.85-.92l.18,0q.13,0,.18.3a1.57,1.57,0,0,1,0,.44,22.53,22.53,0,0,0-.21,2.6v4.74a7.65,7.65,0,0,0,.8,4,2.88,2.88,0,0,0,2.64,1.29,3,3,0,0,0,2-.83c.64-.55.95-1,.95-1.42v-6.58a2.82,2.82,0,0,0-.49-1.9,1.81,1.81,0,0,0-.86-.58,3.11,3.11,0,0,0-.84-.15c-.23,0-.34,0-.34-.07,0-.57.07-.86.21-.88a41.28,41.28,0,0,0,4.86-.92l.17,0q.14,0,.18.3a1.57,1.57,0,0,1,0,.44A22.42,22.42,0,0,0,168.93,109.27Z"/><path class="cls-1" d="M183.47,105.86a3.61,3.61,0,0,1,2.34.75,4,4,0,0,1,1.28,1.74,8,8,0,0,1,5.45-2.49c3,0,4.43,2.25,4.43,6.75v3.9a13.73,13.73,0,0,0,.28,3.13c.05.16.36.32.92.47a5,5,0,0,0,1.19.23c.07,0,.12.14.14.42a1.33,1.33,0,0,1,0,.6c-2.35-.12-3.6-.17-3.76-.17s-1.42,0-3.83.17a.81.81,0,0,1-.15-.58c0-.29.05-.44.15-.44a4.78,4.78,0,0,0,1.24-.23c.55-.15.85-.31.9-.47a9.81,9.81,0,0,0,.25-2.25v-4q0-5.42-3.56-5.42a3.5,3.5,0,0,0-2.25.76c-.63.5-.94.92-.94,1.25l0,.14v.17a17.75,17.75,0,0,1,.14,2.53v4a12,12,0,0,0,.28,2.81c.05.16.35.32.92.47a5,5,0,0,0,1.19.23c.07,0,.12.14.14.42a1.5,1.5,0,0,1,0,.6c-2.35-.12-3.6-.17-3.76-.17s-1.42,0-3.84.17a.87.87,0,0,1-.14-.58c0-.29.05-.44.14-.44a4.77,4.77,0,0,0,1.25-.23c.55-.15.85-.31.9-.47a10.89,10.89,0,0,0,.24-2.46v-3.59c0-3.72-1.12-5.59-3.37-5.59a3.65,3.65,0,0,0-2.13.79c-.71.53-1.07,1-1.07,1.53v6.19a13.18,13.18,0,0,0,.28,3.13c.05.16.35.32.92.47a5,5,0,0,0,1.19.23c.07,0,.12.14.14.42a1.72,1.72,0,0,1,0,.6c-2.35-.12-3.6-.17-3.77-.17s-1.41,0-3.83.17a.87.87,0,0,1-.14-.58c0-.29.05-.44.14-.44a4.83,4.83,0,0,0,1.25-.23c.55-.15.85-.31.9-.47a10.89,10.89,0,0,0,.24-2.46v-6.65a2.82,2.82,0,0,0-.49-1.9,1.81,1.81,0,0,0-.86-.58,3.11,3.11,0,0,0-.84-.15c-.23,0-.34,0-.34-.07,0-.57.07-.86.21-.88a40.52,40.52,0,0,0,4.85-.92l.18,0q.14,0,.18.3a1.57,1.57,0,0,1,0,.44,10.11,10.11,0,0,0-.14,1.4c0,.1,0,.14.07.14s0,0,.1-.07a9.14,9.14,0,0,1,2.2-1.6A5.57,5.57,0,0,1,183.47,105.86Z"/><path class="cls-1" d="M206.84,116.51a13.18,13.18,0,0,0,.28,3.13c0,.16.35.32.91.47a4.93,4.93,0,0,0,1.2.23c.07,0,.11.14.14.42a1.46,1.46,0,0,1,0,.6c-2.34-.12-3.59-.17-3.76-.17s-1.44,0-3.83.17a.87.87,0,0,1-.14-.58c0-.29.05-.44.14-.44a4.83,4.83,0,0,0,1.25-.23c.55-.15.85-.31.89-.47a10.29,10.29,0,0,0,.25-2.46v-6.65a2.82,2.82,0,0,0-.49-1.9,1.86,1.86,0,0,0-.86-.58,3.11,3.11,0,0,0-.85-.15c-.22,0-.33,0-.33-.07,0-.57.07-.86.21-.88a41,41,0,0,0,4.85-.92l.07,0h.11c.09,0,.15.1.17.3a1.06,1.06,0,0,1,0,.44,21.89,21.89,0,0,0-.17,2.53ZM204,101.66a1.79,1.79,0,1,1,1.25.51A1.71,1.71,0,0,1,204,101.66Z"/><path class="cls-1" d="M217.58,105.93a6.29,6.29,0,0,1,2.85.61,4.78,4.78,0,0,1,1.88,1.58,7.26,7.26,0,0,1,.95,2,6.91,6.91,0,0,1,.3,2c0,.47-.07.76-.21.86a1.4,1.4,0,0,1-.81.16h-8.86c-.19,0-.28.06-.28.18a6.84,6.84,0,0,0,1.34,4.07,4.45,4.45,0,0,0,3.86,1.87,7.1,7.1,0,0,0,1.41-.14,6.83,6.83,0,0,0,1.14-.34,7.94,7.94,0,0,0,.81-.38c.22-.13.42-.26.58-.37l.25-.18c.14,0,.21.15.21.46a1.24,1.24,0,0,1-.21.63,6.43,6.43,0,0,1-2.08,1.78,5.94,5.94,0,0,1-3,.79,6.71,6.71,0,0,1-5-2.2,7.51,7.51,0,0,1-2.09-5.36,8.29,8.29,0,0,1,2-5.84A6.48,6.48,0,0,1,217.58,105.93ZM213,99a.64.64,0,0,1,.09-.3,1.24,1.24,0,0,1,.44-.35,1.91,1.91,0,0,1,.92-.19,1.7,1.7,0,0,1,1.19.31c.4.47.87,1.09,1.41,1.87s1,1.45,1.33,2a5,5,0,0,1,.53,1q0,.45-.42.45t-3-2C213.85,100.53,213,99.59,213,99Zm4.22,8.23a3.08,3.08,0,0,0-2.79,1.56,5.29,5.29,0,0,0-1,2.59q0,.24.21.24h6.86c.11,0,.17-.11.17-.35a4.84,4.84,0,0,0-1-2.58A2.87,2.87,0,0,0,217.23,107.23Z"/><path class="cls-1" d="M234.24,105.89c1.38,0,2.29.34,2.74,1a3.25,3.25,0,0,1-.39,1.8,1.14,1.14,0,0,1-1,.56,1.53,1.53,0,0,1-1.16-.6,1.81,1.81,0,0,0-1.44-.6,2.37,2.37,0,0,0-1.9,1,3.41,3.41,0,0,0-.81,2.15v5.27a13.08,13.08,0,0,0,.29,3.13c0,.16.35.32.93.47a5.15,5.15,0,0,0,1.21.23c.07,0,.12.14.14.42a1.72,1.72,0,0,1,0,.6c-2.35-.12-3.61-.17-3.8-.17s-1.42,0-3.83.17a.81.81,0,0,1-.14-.58c0-.29,0-.44.14-.44a4.78,4.78,0,0,0,1.24-.23c.56-.15.85-.31.9-.47a10.84,10.84,0,0,0,.25-2.46v-6.65a2.81,2.81,0,0,0-.5-1.9,1.81,1.81,0,0,0-.86-.58,3.11,3.11,0,0,0-.84-.15c-.22,0-.33,0-.33-.07,0-.57.07-.86.21-.88a41,41,0,0,0,4.85-.92l.17,0q.15,0,.18.3a1.57,1.57,0,0,1,0,.44l-.21,1.75a7.26,7.26,0,0,1,1.74-1.77A3.69,3.69,0,0,1,234.24,105.89Z"/><path class="cls-1" d="M245.12,105.93a6.29,6.29,0,0,1,2.85.61,4.78,4.78,0,0,1,1.88,1.58,7.57,7.57,0,0,1,1,2,6.91,6.91,0,0,1,.3,2c0,.47-.07.76-.21.86a1.4,1.4,0,0,1-.81.16h-8.86c-.19,0-.28.06-.28.18a6.83,6.83,0,0,0,1.33,4.07,4.45,4.45,0,0,0,3.87,1.87,7.17,7.17,0,0,0,1.41-.14,7.46,7.46,0,0,0,1.14-.34,7.94,7.94,0,0,0,.81-.38c.22-.13.41-.26.58-.37l.24-.18c.14,0,.22.15.22.46a1.26,1.26,0,0,1-.22.63,6.38,6.38,0,0,1-2.07,1.78,5.94,5.94,0,0,1-3,.79,6.71,6.71,0,0,1-5-2.2,7.51,7.51,0,0,1-2.09-5.36,8.24,8.24,0,0,1,2-5.84A6.48,6.48,0,0,1,245.12,105.93Zm-.35,1.3a3.11,3.11,0,0,0-2.8,1.56,5.36,5.36,0,0,0-1,2.59q0,.24.21.24h6.85c.12,0,.18-.11.18-.35a4.92,4.92,0,0,0-.95-2.58A2.88,2.88,0,0,0,244.77,107.23Z"/><path class="cls-2" d="M285.47,25.31c-.43-5.8-5-12.39-11.94-11.45-3,.41-6.06,2.05-5.29,6.57,1.11-5.89,15.1-5.55,15.87,4.88.55,7.46-6.49,11.66-11.77,12-11,1.27-18.09-8.06-25.25-15.36C234.81,9.55,221.59,0,210.41,0c-10.87,0-15.22,5.26-17.57,10.24-11.26-1-19.55,3.68-22.34,11.35-2.79-7.67-11.08-12.32-22.34-11.35C145.81,5.26,141.46,0,130.59,0c-11.18,0-24.4,9.55-36.68,22-7.16,7.3-14.24,16.63-25.25,15.36-5.28-.35-12.32-4.55-11.77-12,.77-10.43,14.76-10.77,15.87-4.88.77-4.52-2.25-6.16-5.29-6.57-7-.94-11.51,5.65-11.94,11.45C55,32,60.62,41.51,73,40.9,90.16,40,110.63,6.7,130.59,4c3.82-.52,13.18.18,15.8,6.63-5.82,1.15-8.07,4-9.57,6.56-2.65,4.38-2.43,8.92.16,10.71,2.85,2,7.62.55,10-3.43,2.26-4.31,3-9.43,1.62-12.69,8.92-.41,18.8,6.68,18.8,15.8s-11,13.56-16.12,13.39c-6.14-.2-10.28-2-12.45-4.09.26,4.43,4.09,8.1,13.22,8.1,8.12,0,15.74-3.92,18.42-11.34C173.18,41.07,180.8,45,188.92,45c9.13,0,13-3.67,13.22-8.1C200,39,195.83,40.78,189.69,41c-5.12.17-16.12-4.18-16.12-13.39s9.88-16.21,18.8-15.8c-1.34,3.26-.64,8.38,1.62,12.69,2.41,4,7.18,5.4,10,3.43,2.59-1.79,2.81-6.33.16-10.71-1.5-2.59-3.75-5.41-9.57-6.56,2.62-6.45,12-7.15,15.8-6.63,20,2.69,40.43,36,57.62,36.89C280.38,41.51,286,32,285.47,25.31ZM139.22,25C134.37,23,142.1,11.79,147,11.79,148.24,17.74,143.8,27,139.22,25Zm62.56,0c-4.58,2-9-7.3-7.77-13.25C198.9,11.79,206.63,23,201.78,25Z"/><path class="cls-2" d="M268,136.1c-17.19.86-37.66,34.2-57.62,36.89-3.82.52-13.18-.18-15.8-6.63,5.82-1.15,8.07-4,9.57-6.56,2.65-4.38,2.43-8.92-.16-10.71-2.85-2-7.62-.55-10,3.43-2.26,4.31-3,9.43-1.62,12.69-8.92.41-18.8-6.68-18.8-15.8s11-13.56,16.12-13.39c6.14.2,10.28,2,12.45,4.09-.26-4.43-4.09-8.1-13.22-8.1-8.12,0-15.74,3.92-18.42,11.34-2.68-7.42-10.3-11.34-18.42-11.34-9.13,0-13,3.67-13.22,8.1,2.17-2.09,6.31-3.89,12.45-4.09,5.12-.17,16.12,4.18,16.12,13.39s-9.88,16.21-18.8,15.8c1.34-3.26.64-8.38-1.62-12.69-2.41-4-7.18-5.4-10-3.43-2.59,1.79-2.81,6.33-.16,10.71,1.5,2.59,3.75,5.41,9.57,6.56-2.62,6.45-12,7.15-15.8,6.63-20-2.69-40.43-36-57.62-36.89C60.62,135.49,55,145,55.53,151.69c.43,5.8,4.95,12.39,11.94,11.45,3-.41,6.06-2,5.29-6.57-1.11,5.89-15.1,5.55-15.87-4.88-.55-7.46,6.49-11.66,11.77-12,11-1.27,18.09,8.06,25.25,15.36,12.28,12.41,25.5,22,36.68,22,10.87,0,15.22-5.26,17.57-10.24,11.26,1,19.55-3.68,22.34-11.35,2.79,7.67,11.08,12.32,22.34,11.35,2.35,5,6.7,10.24,17.57,10.24,11.18,0,24.4-9.55,36.68-22,7.16-7.3,14.24-16.63,25.25-15.36,5.28.35,12.32,4.55,11.77,12-.77,10.43-14.76,10.77-15.87,4.88-.77,4.52,2.25,6.16,5.29,6.57,7,.94,11.51-5.65,11.94-11.45C286,145,280.38,135.49,268,136.1ZM147,165.21c-4.89,0-12.62-11.16-7.77-13.25C143.8,150,148.24,159.26,147,165.21Zm47,0c-1.25-6,3.19-15.22,7.77-13.25C206.63,154.05,198.9,165.21,194,165.21Z"/></svg>