<svg width="44" height="24" viewBox="0 0 44 24" fill="none" xmlns="http://www.w3.org/2000/svg">
<path d="M6.82105 8.84227H2.61052C2.05217 8.84227 1.51669 9.06408 1.12187 9.45889C0.72706 9.8537 0.505257 10.3892 0.505257 10.9475C0.505257 11.5059 0.72706 12.0414 1.12187 12.4362C1.51669 12.831 2.05217 13.0528 2.61052 13.0528H6.82105C7.3794 13.0528 7.91488 12.831 8.30969 12.4362C8.7045 12.0414 8.92631 11.5059 8.92631 10.9475C8.92631 10.3892 8.7045 9.8537 8.30969 9.45889C7.91488 9.06408 7.3794 8.84227 6.82105 8.84227ZM42.1474 2.86333V2.73701C41.5442 1.99972 40.782 1.40843 39.918 1.00739C39.0539 0.606355 38.1104 0.405964 37.1579 0.42122H20.4632C18.9162 0.407326 17.418 0.961674 16.2526 1.97911C15.1642 2.93813 14.4486 4.25007 14.2316 5.68438L12.3789 16.2107C12.2196 17.1197 12.2615 18.0526 12.5015 18.9438C12.7416 19.8349 13.174 20.6626 13.7684 21.3686C14.3597 22.0722 15.0974 22.6384 15.9301 23.0274C16.7628 23.4165 17.6704 23.6191 18.5895 23.6212H35.3053C36.8068 23.6439 38.2674 23.1308 39.4248 22.174C40.5823 21.2172 41.3609 19.8792 41.621 18.4002L43.4737 7.87385C43.6196 6.99238 43.5768 6.08998 43.3482 5.22626C43.1196 4.36255 42.7103 3.55717 42.1474 2.86333ZM36.3789 4.63175L29.221 10.4423C28.7978 10.7834 28.2591 10.9475 27.7176 10.9004C27.1761 10.8534 26.6738 10.5987 26.3158 10.1896L21.4105 4.63175H36.3789ZM37.3895 17.6212C37.3043 18.1155 37.0453 18.5632 36.6594 18.8835C36.2734 19.2039 35.7857 19.3759 35.2842 19.3686H18.5895C18.2837 19.366 17.9822 19.2969 17.7059 19.166C17.4296 19.0351 17.1851 18.8456 16.9895 18.6107C16.7933 18.377 16.6503 18.1035 16.5703 17.809C16.4903 17.5146 16.4753 17.2063 16.5263 16.9054L18.2105 7.36859L23.1579 12.9686C24.2347 14.1925 25.7432 14.9527 27.3676 15.09C28.992 15.2273 30.6066 14.7312 31.8737 13.7054L39.1158 7.78964L37.3895 17.6212ZM8.92631 0.42122H2.61052C2.05217 0.42122 1.51669 0.643025 1.12187 1.03784C0.72706 1.43265 0.505257 1.96813 0.505257 2.52648C0.505257 3.08483 0.72706 3.62032 1.12187 4.01513C1.51669 4.40994 2.05217 4.63175 2.61052 4.63175H8.92631C9.48466 4.63175 10.0201 4.40994 10.415 4.01513C10.8098 3.62032 11.0316 3.08483 11.0316 2.52648C11.0316 1.96813 10.8098 1.43265 10.415 1.03784C10.0201 0.643025 9.48466 0.42122 8.92631 0.42122Z" fill="#040302"/>
</svg>
