<svg id="Calque_1" data-name="Calque 1" xmlns="http://www.w3.org/2000/svg" viewBox="0 0 219 23"><defs><style>.cls-1{fill:#e0dccc;}</style></defs><title>logo3</title><path class="cls-1" d="M7.61,4.44,12,16.09c.26.69.47,1.22.64,1.59a1.06,1.06,0,0,0,.68.54,2.62,2.62,0,0,0,.82.21c.06,0,.08.14.08.41a.74.74,0,0,1,0,.23L11.78,19l-2.56.12c-.06-.06-.08-.18-.07-.37s0-.27.1-.27a2.44,2.44,0,0,0,.66-.12c.26-.07.42-.16.46-.28a1.48,1.48,0,0,0,.05-.35,3.65,3.65,0,0,0-.08-.68,4.3,4.3,0,0,0-.15-.6l-.08-.25L9.2,13.66a.17.17,0,0,0-.13-.09c-.57,0-1.13-.07-1.68-.07-.76,0-1.7,0-2.8.11l-.11.07-1,2.43a5.67,5.67,0,0,0-.37,1.52.5.5,0,0,0,.17.44,1.62,1.62,0,0,0,.64.26,4.06,4.06,0,0,0,.64.1s.07.08.08.26a1,1,0,0,1,0,.38L2.38,19c-.29,0-.55,0-.77,0L.87,19l-.78.05A.48.48,0,0,1,0,18.73q0-.3.09-.3a2.63,2.63,0,0,0,.68-.12,1.09,1.09,0,0,0,.58-.3,9.17,9.17,0,0,0,1-2.08L6.22,6.07c0-.08.07-.19.12-.35l.13-.37A2.11,2.11,0,0,1,6.6,5a2.67,2.67,0,0,1,.15-.27,2.61,2.61,0,0,1,.17-.2.48.48,0,0,1,.22-.16.77.77,0,0,1,.27,0Zm-2.56,8,1.57,0c.65,0,1.32,0,2-.07l.06-.11L6.91,7.39,5,12.31C5,12.37,5,12.4,5.05,12.4Z"/><path class="cls-1" d="M27.23,7.44a8.94,8.94,0,0,0-.15-1.95c0-.11-.3-.23-.76-.34a4.94,4.94,0,0,0-1-.16c-.06,0-.09-.09-.09-.26a.48.48,0,0,1,.09-.34l1.14.08c.58,0,1.06,0,1.46,0s.86,0,1.44-.06l1-.07a1.06,1.06,0,0,1,0,.33c0,.18,0,.27-.08.27a6,6,0,0,0-1,.17c-.5.12-.76.23-.79.33a9.43,9.43,0,0,0-.17,2.06v8.38q0,1.37.06,3.09a.64.64,0,0,1-.42.09.93.93,0,0,1-.72-.51L18.8,6.47v9.42A9.4,9.4,0,0,0,19,17.94c0,.1.27.21.74.32a5.37,5.37,0,0,0,.91.17c.05,0,.07.08.08.26a1,1,0,0,1,0,.38C19.19,19,18.34,19,18.12,19l-2.54.12a.61.61,0,0,1-.06-.34q0-.3.06-.3a5.15,5.15,0,0,0,1-.17c.46-.11.71-.23.76-.36a6.89,6.89,0,0,0,.22-2.08V7.15a6.46,6.46,0,0,0-.16-1.66c0-.11-.29-.22-.75-.32a5.8,5.8,0,0,0-1-.14q-.09,0-.09-.27a.53.53,0,0,1,.09-.37l2.25.05c.77,0,1.35,0,1.77-.05q.81,1.5,7.48,10.81a5.8,5.8,0,0,0,.06-.9Z"/><path class="cls-1" d="M31.43,11.89a7.58,7.58,0,0,1,2.1-5.37,6.77,6.77,0,0,1,5.14-2.24,23.33,23.33,0,0,1,5.23,1C44,7,44,7.86,44,8s-.16.33-.47.33a.31.31,0,0,1-.28-.11q-.6-3-4.51-3a4.51,4.51,0,0,0-3.68,1.87,7.07,7.07,0,0,0-1.48,4.53,7.16,7.16,0,0,0,1.62,4.51,5,5,0,0,0,4.07,2.06,6.49,6.49,0,0,0,2.87-.48c.11-.05.16-.16.16-.33l0-1.81V15.4a6.38,6.38,0,0,0-.18-1.9c-.06-.14-.3-.26-.72-.35a5,5,0,0,0-1-.13c-.06,0-.09-.09-.09-.28a.52.52,0,0,1,.09-.36l2.89.11,2.38-.11a1,1,0,0,1,.05.31q0,.33-.09.33a3.3,3.3,0,0,0-.61.14,3.59,3.59,0,0,0-.67.26c-.15.1-.22.59-.22,1.47,0,.31,0,.65,0,1s0,.55,0,.58a2.08,2.08,0,0,0,.15.78,2.09,2.09,0,0,1,.15.44c0,.12-.18.25-.55.39l-.43.17-.49.19-.5.16a6.23,6.23,0,0,1-.62.17l-.66.13a6.5,6.5,0,0,1-.82.12l-.9.07c-.35,0-.71,0-1.09,0a6.58,6.58,0,0,1-5-2.14A7.13,7.13,0,0,1,31.43,11.89Z"/><path class="cls-1" d="M49.23,4.52c.66,0,1.81,0,3.44-.08s2.86-.09,3.69-.09c.06.42.17,1,.34,1.69S57,7.17,57,7.35a.6.6,0,0,1-.4.11c-.19,0-.29,0-.31-.16a2.46,2.46,0,0,0-.93-1.55,3.24,3.24,0,0,0-1.63-.34H52.25c-1.26,0-1.91.09-1.94.28a11,11,0,0,0-.11,1.86v3.53c0,.09.32.13.95.13h2.06a2.12,2.12,0,0,0,.59-.09l.39-.11c.06,0,.14-.11.24-.29a1.41,1.41,0,0,0,.16-.38c0-.08.07-.29.16-.63,0-.1.12-.16.33-.16a.53.53,0,0,1,.37.11v4.18a.56.56,0,0,1-.35.08c-.19,0-.31-.05-.35-.17-.11-.4-.19-.7-.27-.9a1.48,1.48,0,0,0-.16-.35,1.33,1.33,0,0,0-.19-.14,7.57,7.57,0,0,0-2.34-.18c-1.06,0-1.59.07-1.59.2V15.8a7,7,0,0,0,.2,2c0,.14.54.22,1.5.22H53a6.87,6.87,0,0,0,2.78-.38,2.32,2.32,0,0,0,.74-.78,5.1,5.1,0,0,0,.65-1.45c0-.08.13-.13.31-.13a.86.86,0,0,1,.55.13c-.07.2-.19.5-.34.92s-.28.76-.37,1-.18.55-.28.89a4.91,4.91,0,0,0-.2.84c-.75,0-1.94,0-3.55-.05s-3,0-4,0l-2.67.07a.67.67,0,0,1-.06-.36c0-.19,0-.28.06-.28a3.65,3.65,0,0,0,.85-.16,1.15,1.15,0,0,0,.68-.35,7.26,7.26,0,0,0,.15-2.08V7.5a8.6,8.6,0,0,0-.15-1.9c-.05-.11-.26-.22-.65-.33a3.88,3.88,0,0,0-.88-.15c-.05,0-.08-.09-.08-.27a.61.61,0,0,1,.08-.37C47.37,4.51,48.24,4.52,49.23,4.52Zm2-1.87a4.75,4.75,0,0,1,1-1.15A15.51,15.51,0,0,1,53.89.07.8.8,0,0,1,54.28,0a1.43,1.43,0,0,1,.86.21.58.58,0,0,1,.29.45c0,.34-.59.8-1.76,1.39a7.83,7.83,0,0,1-2.19.88C51.33,2.93,51.26,2.84,51.26,2.65Z"/><path class="cls-1" d="M61.73,4.52c.29,0,.58,0,.86,0l.9,0,.8-.06a1.49,1.49,0,0,1,0,.33c0,.21,0,.31-.09.31a3.31,3.31,0,0,0-.79.16c-.39.1-.59.2-.62.3a8.71,8.71,0,0,0-.2,2.06v8.32a8.09,8.09,0,0,0,.2,1.94c0,.14.54.22,1.5.22h1.06a6.87,6.87,0,0,0,2.78-.38,2.32,2.32,0,0,0,.74-.78,5.1,5.1,0,0,0,.65-1.45c0-.08.13-.13.31-.13a.86.86,0,0,1,.55.13c-.07.2-.19.5-.34.92s-.28.76-.37,1-.18.55-.28.89a4.91,4.91,0,0,0-.2.84c-.77,0-2,0-3.59-.07S62.7,19,61.7,19L59,19a.61.61,0,0,1-.06-.35c0-.19,0-.29.06-.29a3.73,3.73,0,0,0,.86-.13,1.1,1.1,0,0,0,.67-.33,7.26,7.26,0,0,0,.15-2.08V7.5a9.33,9.33,0,0,0-.15-2c-.05-.11-.26-.22-.63-.32A4.15,4.15,0,0,0,59.08,5C59,5,59,4.94,59,4.74a.51.51,0,0,1,.09-.35l1.17.08C60.84,4.51,61.33,4.52,61.73,4.52Z"/><path class="cls-1" d="M73,7.46a9.09,9.09,0,0,0-.15-2c0-.11-.25-.22-.63-.32A4,4,0,0,0,71.41,5c-.06,0-.09-.09-.09-.29a.51.51,0,0,1,.09-.35l2.65.11c.23,0,1.09,0,2.56-.11a1.06,1.06,0,0,1,0,.33c0,.21,0,.31-.08.31a3.37,3.37,0,0,0-.8.16c-.38.1-.59.2-.62.3A8.71,8.71,0,0,0,75,7.55v8.38a8.56,8.56,0,0,0,.2,2.05c0,.11.24.21.62.3a3.76,3.76,0,0,0,.8.15s.08.11.08.33a1,1,0,0,1,0,.31C75.15,19,74.29,19,74.06,19l-2.65.12a.48.48,0,0,1-.09-.34q0-.3.09-.3a4,4,0,0,0,.85-.14c.38-.09.59-.19.63-.31A8.92,8.92,0,0,0,73,16Z"/><path class="cls-1" d="M92.25,20.85a5.44,5.44,0,0,0,.73,0l.53-.09.24,0c.18,0,.27.14.27.44v.11a8,8,0,0,1-3.71.77,5.58,5.58,0,0,1-2.3-.57c-.83-.39-1.71-.84-2.63-1.36A12.81,12.81,0,0,0,83.1,19a5.85,5.85,0,0,1-1.64-.82,9.86,9.86,0,0,1-1.65-1.45,6.92,6.92,0,0,1-1.34-2.2A7.57,7.57,0,0,1,78,11.76,7.4,7.4,0,0,1,80,6.48a6.74,6.74,0,0,1,10,0,7.42,7.42,0,0,1,2.08,5.28,7.32,7.32,0,0,1-1.63,4.81,5.9,5.9,0,0,1-3.32,2.32q.6.28,1.65.9a9.2,9.2,0,0,0,1.75.84A5.8,5.8,0,0,0,92.25,20.85ZM84.66,5.21a3.88,3.88,0,0,0-3.35,1.84,7.32,7.32,0,0,0-1.26,4.23,8.46,8.46,0,0,0,1.44,4.87,4.44,4.44,0,0,0,3.86,2.12,3.86,3.86,0,0,0,3.36-1.84A7.43,7.43,0,0,0,90,12.18a8.51,8.51,0,0,0-1.43-4.87A4.47,4.47,0,0,0,84.66,5.21Z"/><path class="cls-1" d="M95.77,4.5c.23,0,1.09,0,2.56-.11a1,1,0,0,1,0,.31q0,.33-.09.33a3.41,3.41,0,0,0-.79.16c-.38.1-.59.2-.62.3a8.71,8.71,0,0,0-.2,2.06v4.92a6.74,6.74,0,0,0,1.06,4,3.5,3.5,0,0,0,3,1.48q3.78,0,3.78-5V7.44a8.79,8.79,0,0,0-.16-1.95c0-.11-.3-.23-.76-.34a4.83,4.83,0,0,0-1-.16c-.06,0-.09-.09-.09-.26a.48.48,0,0,1,.09-.34l1.15.08c.57,0,1,0,1.45,0s.87,0,1.45-.06.92-.07,1-.07a1,1,0,0,1,0,.33q0,.27-.09.27a6,6,0,0,0-1,.17q-.74.18-.78.33a8.73,8.73,0,0,0-.18,2.06v5.36q0,3.42-1.44,4.75A5.75,5.75,0,0,1,100.2,19a5.21,5.21,0,0,1-4-1.55q-1.41-1.54-1.41-5v-5a9.09,9.09,0,0,0-.15-2c0-.11-.26-.22-.63-.32A4.15,4.15,0,0,0,93.12,5c-.06,0-.09-.09-.09-.29a.51.51,0,0,1,.09-.35Z"/><path class="cls-1" d="M111.81,4.52c.66,0,1.81,0,3.44-.08s2.87-.09,3.69-.09c.06.42.17,1,.34,1.69s.27,1.13.3,1.31a.58.58,0,0,1-.4.11c-.19,0-.29,0-.31-.16A2.49,2.49,0,0,0,118,5.75a3.31,3.31,0,0,0-1.64-.34h-1.48c-1.26,0-1.91.09-1.94.28a11,11,0,0,0-.11,1.86v3.53c0,.09.32.13,1,.13h2.06a2.12,2.12,0,0,0,.59-.09l.4-.11c.06,0,.13-.11.23-.29a1.41,1.41,0,0,0,.16-.38c0-.08.07-.29.16-.63,0-.1.12-.16.33-.16a.51.51,0,0,1,.37.11v4.18a.54.54,0,0,1-.35.08c-.19,0-.31-.05-.35-.17a7.5,7.5,0,0,0-.27-.9,1.48,1.48,0,0,0-.16-.35,1.33,1.33,0,0,0-.19-.14,7.57,7.57,0,0,0-2.34-.18c-1.06,0-1.59.07-1.59.2V15.8a7,7,0,0,0,.2,2c0,.14.55.22,1.5.22h1.06a6.84,6.84,0,0,0,2.78-.38,2.32,2.32,0,0,0,.74-.78,5.1,5.1,0,0,0,.65-1.45c0-.08.13-.13.31-.13a.86.86,0,0,1,.55.13c-.07.2-.19.5-.34.92s-.28.76-.36,1-.19.55-.29.89a6.09,6.09,0,0,0-.2.84c-.75,0-1.93,0-3.55-.05s-2.94,0-4,0l-2.67.07a.57.57,0,0,1-.07-.36c0-.19,0-.28.07-.28a3.84,3.84,0,0,0,.85-.16,1.15,1.15,0,0,0,.67-.35,7.26,7.26,0,0,0,.15-2.08V7.5a8.6,8.6,0,0,0-.15-1.9c0-.11-.26-.22-.65-.33a3.9,3.9,0,0,0-.87-.15q-.09,0-.09-.27a.53.53,0,0,1,.09-.37C110,4.51,110.83,4.52,111.81,4.52Z"/><path class="cls-1" d="M140.1,15a13.78,13.78,0,0,1-.31,1.69,4.44,4.44,0,0,1-.44,1.51,10.64,10.64,0,0,1-5.27,1,6.58,6.58,0,0,1-5-2.14,7.13,7.13,0,0,1-2-5.1,7.58,7.58,0,0,1,2.1-5.37,6.78,6.78,0,0,1,5.14-2.24,27.87,27.87,0,0,1,5.36.55c0,2,0,3,0,3.18s-.16.33-.47.33a.31.31,0,0,1-.28-.11c0-.19-.1-.39-.17-.58a3.06,3.06,0,0,0-.42-.78,3.48,3.48,0,0,0-.77-.81,4.14,4.14,0,0,0-1.28-.6,6.3,6.3,0,0,0-1.86-.25,4.56,4.56,0,0,0-3.69,1.91,6.75,6.75,0,0,0-1.52,4.31,8.42,8.42,0,0,0,.62,3.29,5.7,5.7,0,0,0,1.95,2.48,5.15,5.15,0,0,0,3.17,1,4.35,4.35,0,0,0,3.37-1.28,2.81,2.81,0,0,0,.54-.87c.16-.36.27-.66.35-.9s.15-.37.19-.37a1.39,1.39,0,0,1,.32.05l.3.08Z"/><path class="cls-1" d="M148.64,4.44l4.41,11.65c.27.69.48,1.22.64,1.59a1.11,1.11,0,0,0,.69.54,2.64,2.64,0,0,0,.81.21c.06,0,.09.14.09.41a.74.74,0,0,1,0,.23L152.81,19l-2.56.12a.54.54,0,0,1-.08-.37c0-.18,0-.27.1-.27a2.44,2.44,0,0,0,.67-.12c.26-.07.41-.16.46-.28a1.45,1.45,0,0,0,0-.35,3.56,3.56,0,0,0-.07-.68c-.06-.26-.1-.46-.15-.6l-.09-.25-.9-2.49c0-.06-.09-.09-.13-.09-.58,0-1.14-.07-1.68-.07-.77,0-1.7,0-2.8.11l-.11.07-.95,2.43a5.81,5.81,0,0,0-.38,1.52.51.51,0,0,0,.18.44,1.62,1.62,0,0,0,.64.26,3.9,3.9,0,0,0,.64.1s.07.08.08.26a1.17,1.17,0,0,1,0,.38L143.41,19c-.29,0-.55,0-.77,0l-.74,0-.78.05a.48.48,0,0,1-.09-.34q0-.3.09-.3a2.63,2.63,0,0,0,.68-.12,1,1,0,0,0,.57-.3,8.71,8.71,0,0,0,1-2.08l3.84-9.86c0-.08.07-.19.12-.35s.09-.29.12-.37.08-.18.14-.31a1.53,1.53,0,0,1,.15-.27,1.4,1.4,0,0,1,.17-.2.48.48,0,0,1,.22-.16.77.77,0,0,1,.27,0Zm-2.56,8,1.57,0c.64,0,1.31,0,2-.07l.06-.11-1.79-4.88L146,12.31C146,12.37,146.05,12.4,146.08,12.4Z"/><path class="cls-1" d="M159.47,4.52c.29,0,.58,0,.86,0l.9,0,.79-.06a1,1,0,0,1,0,.33c0,.21,0,.31-.09.31a3.31,3.31,0,0,0-.79.16c-.39.1-.59.2-.62.3a8.71,8.71,0,0,0-.2,2.06v8.32a8.09,8.09,0,0,0,.2,1.94c0,.14.54.22,1.5.22h1.06a6.87,6.87,0,0,0,2.78-.38,2.32,2.32,0,0,0,.74-.78,5.1,5.1,0,0,0,.65-1.45c0-.08.13-.13.31-.13a.86.86,0,0,1,.55.13c-.07.2-.19.5-.34.92s-.28.76-.37,1-.18.55-.28.89a4.91,4.91,0,0,0-.2.84c-.77,0-2,0-3.59-.07s-2.94-.07-3.94-.07l-2.67.07a.61.61,0,0,1-.06-.35c0-.19,0-.29.06-.29a3.73,3.73,0,0,0,.86-.13,1.1,1.1,0,0,0,.67-.33,7.26,7.26,0,0,0,.15-2.08V7.5a9.33,9.33,0,0,0-.15-2c-.05-.11-.26-.22-.63-.32a4.15,4.15,0,0,0-.85-.14c-.06,0-.09-.09-.09-.29a.51.51,0,0,1,.09-.35l1.17.08C158.58,4.51,159.07,4.52,159.47,4.52Z"/><path class="cls-1" d="M171.77,4.52c.67,0,1.81,0,3.45-.08s2.86-.09,3.68-.09c.06.42.17,1,.34,1.69s.27,1.13.3,1.31a.56.56,0,0,1-.4.11c-.19,0-.29,0-.31-.16a2.45,2.45,0,0,0-.92-1.55,3.27,3.27,0,0,0-1.63-.34H174.8c-1.27,0-1.92.09-2,.28a11,11,0,0,0-.11,1.86v3.59c0,.09.31.14.93.14h1.17a4.45,4.45,0,0,0,1.81-.21,2.05,2.05,0,0,0,.57-1.21,1.93,1.93,0,0,1,.05-.2q0-.15.33-.15a.51.51,0,0,1,.37.11V13.9a.47.47,0,0,1-.35.09c-.19,0-.31-.06-.35-.18a7.83,7.83,0,0,0-.27-.89,1.29,1.29,0,0,0-.16-.35,1.25,1.25,0,0,0-.19-.15,8.14,8.14,0,0,0-2.34-.17c-1,0-1.57.06-1.57.2v3.48a8.56,8.56,0,0,0,.2,2.05c0,.11.24.21.62.3a3.76,3.76,0,0,0,.8.15s.08.11.08.33a1,1,0,0,1,0,.31c-1.47-.08-2.32-.12-2.56-.12l-2.65.12a.48.48,0,0,1-.09-.34q0-.3.09-.3a4,4,0,0,0,.85-.14c.38-.09.59-.19.63-.31a9.07,9.07,0,0,0,.15-2V7.5a8.6,8.6,0,0,0-.15-1.9c0-.11-.26-.22-.65-.33a3.9,3.9,0,0,0-.87-.15q-.09,0-.09-.27a.53.53,0,0,1,.09-.37C169.91,4.51,170.79,4.52,171.77,4.52Z"/><path class="cls-1" d="M186.58,4.44,191,16.09c.27.69.48,1.22.64,1.59a1.11,1.11,0,0,0,.69.54,2.57,2.57,0,0,0,.81.21c.06,0,.09.14.09.41a.74.74,0,0,1,0,.23L190.75,19l-2.56.12a.54.54,0,0,1-.08-.37c0-.18,0-.27.1-.27a2.32,2.32,0,0,0,.66-.12c.27-.07.42-.16.47-.28a1.45,1.45,0,0,0,0-.35,3,3,0,0,0-.08-.68,4.55,4.55,0,0,0-.14-.6l-.09-.25-.9-2.49c0-.06-.09-.09-.13-.09-.58,0-1.14-.07-1.68-.07-.77,0-1.7,0-2.8.11l-.11.07-.95,2.43a5.81,5.81,0,0,0-.38,1.52.51.51,0,0,0,.18.44,1.56,1.56,0,0,0,.64.26,3.9,3.9,0,0,0,.64.1s.07.08.08.26a1.17,1.17,0,0,1,0,.38L181.35,19c-.29,0-.55,0-.77,0l-.74,0-.79.05a.54.54,0,0,1-.08-.34c0-.2,0-.3.08-.3a2.62,2.62,0,0,0,.69-.12,1,1,0,0,0,.57-.3,8.71,8.71,0,0,0,1-2.08l3.84-9.86c0-.08.07-.19.12-.35s.09-.29.12-.37.08-.18.13-.31a1.47,1.47,0,0,1,.16-.27,2.33,2.33,0,0,1,.16-.2.51.51,0,0,1,.23-.16.77.77,0,0,1,.27,0Zm-2.56,8,1.57,0c.64,0,1.31,0,2-.07l.07-.11-1.79-4.88L184,12.31C184,12.37,184,12.4,184,12.4Z"/><path class="cls-1" d="M196.73,4.48c1,0,1.84,0,2.48,0s1.48,0,2.5,0,1.8,0,2.36,0a7,7,0,0,0,1.52-.25L206,7.35a.75.75,0,0,1-.53.15c-.13,0-.21,0-.22-.11a3.15,3.15,0,0,0-.76-1.6,2.89,2.89,0,0,0-1.71-.36q-2.34,0-2.43.33a9,9,0,0,0-.2,2.21v8a8.56,8.56,0,0,0,.2,2.05c0,.11.24.21.62.3a3.7,3.7,0,0,0,.79.15q.09,0,.09.33a1,1,0,0,1,0,.31c-1.47-.08-2.33-.12-2.56-.12l-2.65.12a.48.48,0,0,1-.09-.34q0-.3.09-.3a4.15,4.15,0,0,0,.85-.14c.37-.09.58-.19.63-.31a8.92,8.92,0,0,0,.15-2V8a6.66,6.66,0,0,0-.2-2.27c-.11-.22-.91-.33-2.38-.33a2.89,2.89,0,0,0-1.71.36,3.07,3.07,0,0,0-.76,1.6c0,.08-.09.11-.22.11a.75.75,0,0,1-.53-.15l.42-3.16a6.82,6.82,0,0,0,1.52.25C194.94,4.44,195.72,4.45,196.73,4.48Z"/><path class="cls-1" d="M209.11,7.46a9.09,9.09,0,0,0-.15-2c-.05-.11-.26-.22-.63-.32a4.15,4.15,0,0,0-.85-.14c-.06,0-.09-.09-.09-.29a.51.51,0,0,1,.09-.35l2.65.11c.23,0,1.09,0,2.56-.11a1.06,1.06,0,0,1,0,.33c0,.21,0,.31-.09.31a3.41,3.41,0,0,0-.79.16c-.38.1-.59.2-.62.3a8.71,8.71,0,0,0-.2,2.06v8.38a8.56,8.56,0,0,0,.2,2.05c0,.11.24.21.62.3a3.81,3.81,0,0,0,.79.15q.09,0,.09.33a1,1,0,0,1,0,.31c-1.47-.08-2.33-.12-2.56-.12l-2.65.12a.48.48,0,0,1-.09-.34q0-.3.09-.3a4.15,4.15,0,0,0,.85-.14c.37-.09.58-.19.63-.31a8.92,8.92,0,0,0,.15-2Z"/></svg>