<svg id="Calque_2" data-name="Calque 2" xmlns="http://www.w3.org/2000/svg" viewBox="0 0 341 135"><defs><style>.cls-1{fill:#e0dccc;}.cls-2{fill:#4e473e;}</style></defs><title>logo2</title><path class="cls-1" d="M12.85,54.85l7,18.57c.42,1.1.76,1.94,1,2.53a1.78,1.78,0,0,0,1.09.86,4.15,4.15,0,0,0,1.3.33c.09,0,.14.22.14.67a1,1,0,0,1-.07.35C21,78,19.73,78,19.49,78l-4.07.17a.75.75,0,0,1-.13-.58c0-.29.07-.44.16-.44A4.67,4.67,0,0,0,16.5,77c.43-.12.67-.27.74-.46a2.1,2.1,0,0,0,.07-.56,6.61,6.61,0,0,0-.12-1.08c-.08-.41-.16-.73-.23-1l-.14-.39-1.44-4a.26.26,0,0,0-.21-.14c-.92-.07-1.81-.11-2.67-.11q-1.83,0-4.47.18l-.17.1L6.34,73.45a9.7,9.7,0,0,0-.59,2.43.81.81,0,0,0,.28.7A2.57,2.57,0,0,0,7,77a4.85,4.85,0,0,0,1,.16q.11,0,.12.42a2,2,0,0,1,0,.6L4.52,78H3.29l-1.18.07-1.25.07a.76.76,0,0,1-.14-.53c0-.32.05-.49.14-.49A4.85,4.85,0,0,0,2,77a1.62,1.62,0,0,0,.91-.5,13.62,13.62,0,0,0,1.66-3.3l6.11-15.72a3.28,3.28,0,0,1,.2-.56c.09-.26.14-.45.19-.58s.12-.29.21-.49a2.38,2.38,0,0,1,.25-.44l.26-.32a.92.92,0,0,1,.35-.24,1.31,1.31,0,0,1,.44-.07ZM8.77,67.54c1.22,0,2.05.07,2.5.07,1,0,2.09,0,3.2-.1l.1-.18-2.85-7.77-3,7.84C8.7,67.5,8.72,67.54,8.77,67.54Z"/><path class="cls-1" d="M44.11,59.63a13.35,13.35,0,0,0-.25-3.09c-.07-.19-.47-.37-1.21-.54a8.32,8.32,0,0,0-1.57-.27c-.09,0-.14-.13-.14-.4a.83.83,0,0,1,.14-.55l1.83.13c.92.05,1.69.08,2.32.08a20.32,20.32,0,0,0,2.31-.1,16.22,16.22,0,0,1,1.63-.11,1.58,1.58,0,0,1,.07.53c0,.28-.05.42-.14.42a9.81,9.81,0,0,0-1.53.28c-.78.19-1.2.37-1.25.53A14.34,14.34,0,0,0,46,59.81V73.17c0,1.45,0,3.09.11,4.92a1,1,0,0,1-.67.14,1.5,1.5,0,0,1-1.16-.81L30.68,58.09v15a14.93,14.93,0,0,0,.24,3.27c0,.16.44.33,1.18.51a9.12,9.12,0,0,0,1.46.26q.11,0,.12.42a1.51,1.51,0,0,1,0,.6C31.34,78,30,78,29.68,78l-4,.17a.83.83,0,0,1-.11-.53c0-.32,0-.49.11-.49a7.86,7.86,0,0,0,1.6-.26c.73-.18,1.14-.37,1.21-.58A10.71,10.71,0,0,0,28.71,73V59.18a10.65,10.65,0,0,0-.25-2.64c-.07-.19-.47-.36-1.19-.51a9.41,9.41,0,0,0-1.58-.23c-.1,0-.14-.14-.14-.44a.8.8,0,0,1,.14-.58c1.82,0,3,.07,3.58.07,1.22,0,2.16,0,2.81-.07Q33.39,57.18,44,72a8.73,8.73,0,0,0,.11-1.44Z"/><path class="cls-1" d="M50.8,66.74a12.08,12.08,0,0,1,3.34-8.57,10.81,10.81,0,0,1,8.19-3.56,36.38,36.38,0,0,1,8.33,1.58c.09,2.67.14,4.12.14,4.36s-.25.53-.74.53a.49.49,0,0,1-.46-.18q-.94-4.82-7.17-4.82a7.19,7.19,0,0,0-5.87,3,11.75,11.75,0,0,0,.23,14.4,7.92,7.92,0,0,0,6.49,3.28A10.23,10.23,0,0,0,67.85,76c.16-.07.24-.24.24-.53V72.35a10.43,10.43,0,0,0-.28-3c-.1-.23-.48-.42-1.15-.56a8.13,8.13,0,0,0-1.56-.21c-.09,0-.14-.15-.14-.44a.91.91,0,0,1,.14-.58l4.6.17c.19,0,1.46,0,3.8-.17a1.61,1.61,0,0,1,.07.49c0,.35,0,.53-.14.53a4.27,4.27,0,0,0-1,.23,5.73,5.73,0,0,0-1.07.4c-.23.17-.35,1-.35,2.36v1.6a6.59,6.59,0,0,0,.06.93,3.25,3.25,0,0,0,.24,1.23,3.43,3.43,0,0,1,.25.7c0,.19-.3.4-.88.63a4.2,4.2,0,0,0-.69.27l-.79.3-.79.26a7,7,0,0,1-1,.26L66.35,78c-.45.09-.89.15-1.3.19l-1.44.1q-.82.06-1.74.06A10.49,10.49,0,0,1,54,74.91,11.35,11.35,0,0,1,50.8,66.74Z"/><path class="cls-1" d="M79.15,55c1.06,0,2.89,0,5.49-.14s4.56-.14,5.87-.14a24.62,24.62,0,0,0,.54,2.69c.27,1.11.43,1.81.48,2.09a.89.89,0,0,1-.63.18c-.31,0-.47-.08-.5-.25A3.93,3.93,0,0,0,88.93,57a5.32,5.32,0,0,0-2.6-.54H84c-2,0-3,.15-3.09.46a16.73,16.73,0,0,0-.18,3v5.62c0,.15.5.22,1.51.22H85.5a2.92,2.92,0,0,0,.93-.15l.63-.17c.1,0,.22-.18.37-.46a2.37,2.37,0,0,0,.27-.61,7.47,7.47,0,0,1,.24-1c0-.16.2-.24.53-.24a.86.86,0,0,1,.6.17V69.9a.84.84,0,0,1-.56.14c-.31,0-.5-.09-.57-.28-.12-.48-.26-1-.42-1.43a2.2,2.2,0,0,0-.26-.56,2.37,2.37,0,0,0-.3-.23,12.63,12.63,0,0,0-3.73-.28c-1.69,0-2.53.11-2.53.32V73A11.13,11.13,0,0,0,81,76.2c.07.23.86.35,2.39.35H85.1a10.9,10.9,0,0,0,4.42-.6A3.71,3.71,0,0,0,90.7,74.7a8.11,8.11,0,0,0,1-2.3c0-.14.21-.21.49-.21a1.3,1.3,0,0,1,.88.21c-.12.31-.3.79-.54,1.46S92.13,75,92,75.44s-.3.88-.46,1.42a9,9,0,0,0-.32,1.34c-1.19,0-3.08,0-5.66-.07s-4.69-.07-6.33-.07l-4.25.1a.92.92,0,0,1-.11-.56c0-.31,0-.46.11-.46a6.17,6.17,0,0,0,1.35-.24,1.85,1.85,0,0,0,1.08-.57,11.42,11.42,0,0,0,.24-3.3V59.74a13.71,13.71,0,0,0-.24-3c-.07-.19-.42-.37-1-.53A5.67,5.67,0,0,0,75,55.94c-.09,0-.14-.14-.14-.42a1,1,0,0,1,.14-.6C76.19,55,77.58,55,79.15,55Zm3.24-3A7.77,7.77,0,0,1,84,50.18a26.48,26.48,0,0,1,2.56-2.29,1.52,1.52,0,0,1,.63-.1,2.4,2.4,0,0,1,1.38.33.9.9,0,0,1,.45.72c0,.54-.93,1.28-2.81,2.22a13,13,0,0,1-3.48,1.4C82.51,52.46,82.39,52.31,82.39,52Z"/><path class="cls-1" d="M99.06,55h1.37l1.44-.09,1.27-.09a1.58,1.58,0,0,1,.07.53c0,.33,0,.49-.14.49a5.5,5.5,0,0,0-1.27.25c-.61.16-.93.33-1,.49a13.3,13.3,0,0,0-.32,3.27V73.06a13,13,0,0,0,.32,3.1c.07.23.87.35,2.39.35h1.69a10.94,10.94,0,0,0,4.43-.6,3.81,3.81,0,0,0,1.18-1.25,8.11,8.11,0,0,0,1-2.3c0-.14.21-.21.49-.21a1.3,1.3,0,0,1,.88.21c-.11.31-.3.79-.54,1.46s-.44,1.21-.58,1.62-.29.88-.46,1.42A8.87,8.87,0,0,0,111,78.2c-1.22,0-3.13,0-5.72-.11S100.62,78,99,78l-4.26.1a.91.91,0,0,1-.1-.56c0-.31,0-.46.1-.46a6.4,6.4,0,0,0,1.37-.21c.59-.14.94-.32,1.06-.53a11.42,11.42,0,0,0,.24-3.3V59.74a14.3,14.3,0,0,0-.24-3.2c-.07-.19-.41-.36-1-.51a6.24,6.24,0,0,0-1.36-.23c-.09,0-.14-.15-.14-.46a.84.84,0,0,1,.14-.56l1.87.13C97.64,55,98.43,55,99.06,55Z"/><path class="cls-1" d="M117.1,59.67a14.28,14.28,0,0,0-.25-3.13c-.07-.19-.4-.36-1-.51a6.24,6.24,0,0,0-1.36-.23c-.09,0-.14-.15-.14-.46a.84.84,0,0,1,.14-.56l4.22.18q.57,0,4.08-.18a1.58,1.58,0,0,1,.07.53c0,.33,0,.49-.14.49a5.41,5.41,0,0,0-1.26.25c-.61.16-.94.33-1,.49a13.3,13.3,0,0,0-.32,3.27V73.17a13.3,13.3,0,0,0,.32,3.27c0,.16.38.32,1,.47a6,6,0,0,0,1.26.23c.09,0,.14.18.14.53a1.61,1.61,0,0,1-.07.49c-2.34-.12-3.7-.17-4.08-.17-.11,0-1.52.05-4.22.17a.76.76,0,0,1-.14-.53c0-.32.05-.49.14-.49a6.21,6.21,0,0,0,1.36-.21c.6-.14.93-.3,1-.49a14.28,14.28,0,0,0,.25-3.13Z"/><path class="cls-1" d="M147.7,81a8.92,8.92,0,0,0,1.16-.07l.85-.14a2.32,2.32,0,0,1,.38-.07c.28,0,.42.23.42.7v.18a12.41,12.41,0,0,1-5.9,1.23,8.89,8.89,0,0,1-3.68-.92c-1.32-.61-2.72-1.33-4.18-2.16a19.45,19.45,0,0,0-3.64-1.7,9.77,9.77,0,0,1-2.6-1.31,15.35,15.35,0,0,1-2.64-2.32,11,11,0,0,1-2.12-3.49,12.33,12.33,0,0,1,2.46-12.84,10.78,10.78,0,0,1,15.22-.65c.22.21.44.42.65.65a12.53,12.53,0,0,1,.72,16.09c-1.72,2.11-3.49,3.34-5.29,3.69.63.3,1.51.79,2.62,1.44a13.77,13.77,0,0,0,2.79,1.34A9.64,9.64,0,0,0,147.7,81ZM135.61,56.08A6.21,6.21,0,0,0,130.26,59a11.68,11.68,0,0,0-2,6.73,13.59,13.59,0,0,0,2.28,7.77,7.1,7.1,0,0,0,6.16,3.38A6.16,6.16,0,0,0,142.06,74a11.81,11.81,0,0,0,2-6.77,13.43,13.43,0,0,0-2.28-7.75A7.09,7.09,0,0,0,135.61,56.08Z"/><path class="cls-1" d="M153.3,55q.55,0,4.08-.18a1.61,1.61,0,0,1,.07.49c0,.36,0,.53-.14.53a5.5,5.5,0,0,0-1.27.25c-.61.16-.94.33-1,.49a13.3,13.3,0,0,0-.32,3.27v7.84A10.6,10.6,0,0,0,156.43,74a5.52,5.52,0,0,0,4.78,2.35q6,0,6-7.91V59.63a13.35,13.35,0,0,0-.25-3.09c-.07-.19-.47-.37-1.21-.54a8.21,8.21,0,0,0-1.56-.27c-.1,0-.14-.13-.14-.4a.73.73,0,0,1,.14-.55l1.82.13c.92.05,1.69.08,2.32.08a20.32,20.32,0,0,0,2.31-.1,16.22,16.22,0,0,1,1.63-.11,1.58,1.58,0,0,1,.07.53c0,.28,0,.42-.14.42a9.81,9.81,0,0,0-1.53.28c-.78.19-1.2.37-1.25.53a14.36,14.36,0,0,0-.28,3.27v8.54c0,3.64-.76,6.16-2.28,7.58a9.22,9.22,0,0,1-6.51,2.13,8.27,8.27,0,0,1-6.43-2.47c-1.5-1.64-2.25-4.28-2.25-7.94v-8a13.69,13.69,0,0,0-.25-3.13c-.07-.19-.4-.36-1-.51a6.15,6.15,0,0,0-1.35-.23c-.09,0-.14-.15-.14-.46a.84.84,0,0,1,.14-.56Z"/><path class="cls-1" d="M178.86,55c1.06,0,2.88,0,5.48-.14s4.56-.14,5.88-.14a24.62,24.62,0,0,0,.54,2.69c.27,1.11.43,1.81.48,2.09a.91.91,0,0,1-.64.18c-.3,0-.47-.08-.49-.25A3.92,3.92,0,0,0,188.63,57a5.32,5.32,0,0,0-2.6-.54h-2.35c-2,0-3.05.15-3.1.46a16.73,16.73,0,0,0-.17,3v5.62c0,.15.5.22,1.51.22h3.29a2.92,2.92,0,0,0,.93-.15l.63-.17c.09,0,.22-.18.37-.46a2.34,2.34,0,0,0,.26-.61,8.27,8.27,0,0,1,.25-1c0-.16.2-.24.53-.24a.84.84,0,0,1,.59.17V69.9a.84.84,0,0,1-.56.14c-.3,0-.49-.09-.56-.28-.16-.63-.31-1.11-.42-1.43a1.93,1.93,0,0,0-.27-.56,2.09,2.09,0,0,0-.29-.23,12.63,12.63,0,0,0-3.73-.28c-1.69,0-2.53.11-2.53.32V73a11.12,11.12,0,0,0,.31,3.2c.07.23.87.35,2.39.35h1.69a10.94,10.94,0,0,0,4.43-.6,3.81,3.81,0,0,0,1.18-1.25,8.11,8.11,0,0,0,1-2.3c0-.14.21-.21.49-.21a1.3,1.3,0,0,1,.88.21l-.55,1.46c-.24.67-.44,1.21-.58,1.62s-.29.88-.45,1.42a9,9,0,0,0-.32,1.34c-1.2,0-3.08,0-5.66-.07s-4.69-.07-6.33-.07l-4.25.1a.92.92,0,0,1-.11-.56c0-.31,0-.46.11-.46A5.77,5.77,0,0,0,176,76.9a1.79,1.79,0,0,0,1.07-.57,10.76,10.76,0,0,0,.25-3.3V59.74a13.13,13.13,0,0,0-.25-3c-.07-.19-.41-.37-1-.53a6,6,0,0,0-1.39-.25c-.1,0-.14-.14-.14-.42a.86.86,0,0,1,.14-.6C175.89,55,177.29,55,178.86,55Z"/><path class="cls-1" d="M223.93,71.62a22.31,22.31,0,0,1-.49,2.69,7.51,7.51,0,0,1-.7,2.41q-2.58,1.55-8.41,1.55a10.49,10.49,0,0,1-7.89-3.41,11.39,11.39,0,0,1-3.25-8.12,12.08,12.08,0,0,1,3.34-8.57,10.81,10.81,0,0,1,8.19-3.56,43,43,0,0,1,8.54.88c0,3.14-.07,4.82-.07,5.06s-.24.53-.74.53a.47.47,0,0,1-.45-.18,7.59,7.59,0,0,0-.27-.93,4.87,4.87,0,0,0-.66-1.23,5.1,5.1,0,0,0-1.24-1.3,6.46,6.46,0,0,0-2-.95,10.15,10.15,0,0,0-3-.41,7.3,7.3,0,0,0-5.88,3A10.75,10.75,0,0,0,206.53,66a13.79,13.79,0,0,0,1,5.24,9.2,9.2,0,0,0,3.11,4,8.29,8.29,0,0,0,5,1.56,7,7,0,0,0,5.38-2,5,5,0,0,0,.86-1.39c.25-.58.43-1.06.56-1.44s.23-.58.3-.58a2.24,2.24,0,0,1,.51.07,2.54,2.54,0,0,1,.47.14Z"/><path class="cls-1" d="M237.54,54.85l7,18.57c.42,1.1.76,1.94,1,2.53a1.78,1.78,0,0,0,1.09.86,4.15,4.15,0,0,0,1.3.33c.09,0,.14.22.14.67a1.36,1.36,0,0,1-.07.35c-2.35-.12-3.63-.17-3.87-.17l-4.08.17a.84.84,0,0,1-.12-.58c0-.29.06-.44.16-.44a4.11,4.11,0,0,0,1-.17c.42-.12.67-.27.74-.46A2.23,2.23,0,0,0,242,76a6.61,6.61,0,0,0-.12-1.08c-.08-.41-.16-.73-.23-1l-.14-.39-1.44-4a.26.26,0,0,0-.21-.14c-.92-.07-1.81-.11-2.68-.11-1.21,0-2.7.06-4.46.18l-.18.1L231,73.45a9.3,9.3,0,0,0-.6,2.43.81.81,0,0,0,.29.7,2.57,2.57,0,0,0,1,.4,4.85,4.85,0,0,0,1,.16c.08,0,.12.14.13.42a2,2,0,0,1,0,.6L229.2,78H228l-1.17.07-1.25.07a.72.72,0,0,1-.14-.53c0-.32,0-.49.14-.49a5,5,0,0,0,1.09-.17,1.68,1.68,0,0,0,.91-.5,14,14,0,0,0,1.65-3.3l6.12-15.72a5.27,5.27,0,0,0,.19-.56c.09-.26.15-.45.2-.58a4.25,4.25,0,0,1,.21-.49,1.73,1.73,0,0,1,.25-.44c.07-.09.15-.2.26-.32a.79.79,0,0,1,.35-.24,1.31,1.31,0,0,1,.44-.07Zm-4.08,12.69c1.22,0,2,.07,2.49.07,1,0,2.1,0,3.2-.1l.11-.18-2.85-7.77-3,7.84c0,.1,0,.14.05.14Z"/><path class="cls-1" d="M254.78,55h1.37l1.44-.09,1.27-.09a1.58,1.58,0,0,1,.07.53c0,.33-.05.49-.14.49a5.5,5.5,0,0,0-1.27.25c-.6.16-.93.33-1,.49a13.3,13.3,0,0,0-.32,3.27V73.06a13,13,0,0,0,.32,3.1c.07.23.87.35,2.39.35h1.69a10.94,10.94,0,0,0,4.43-.6,3.81,3.81,0,0,0,1.18-1.25,8.11,8.11,0,0,0,1-2.3c.05-.14.21-.21.49-.21a1.3,1.3,0,0,1,.88.21c-.11.31-.3.79-.54,1.46s-.44,1.21-.58,1.62-.29.88-.46,1.42a9,9,0,0,0-.31,1.34c-1.22,0-3.13,0-5.72-.11s-4.68-.1-6.27-.1l-4.26.1a.91.91,0,0,1-.1-.56c0-.31,0-.46.1-.46a6.4,6.4,0,0,0,1.37-.21c.59-.14.94-.32,1.06-.53a11.08,11.08,0,0,0,.25-3.3V59.74a14.92,14.92,0,0,0-.25-3.2c-.07-.19-.41-.36-1-.51a6.24,6.24,0,0,0-1.36-.23c-.09,0-.14-.15-.14-.46a.84.84,0,0,1,.14-.56l1.87.13C253.36,55,254.15,55,254.78,55Z"/><path class="cls-1" d="M274.39,55c1.06,0,2.89,0,5.49-.14s4.56-.14,5.87-.14a24.62,24.62,0,0,0,.54,2.69c.27,1.11.43,1.81.48,2.09a.91.91,0,0,1-.64.18c-.3,0-.46-.08-.49-.25A3.93,3.93,0,0,0,284.17,57a5.36,5.36,0,0,0-2.61-.54h-2.35c-2,0-3,.15-3.09.46a16.73,16.73,0,0,0-.18,3V65.6c0,.14.49.21,1.48.21h1.86a7.22,7.22,0,0,0,2.88-.33,3.34,3.34,0,0,0,.92-1.92,1.14,1.14,0,0,1,.07-.32c0-.16.2-.24.52-.24a.86.86,0,0,1,.6.17V70a.8.8,0,0,1-.56.15c-.31,0-.49-.1-.56-.29-.17-.63-.31-1.1-.43-1.42a1.68,1.68,0,0,0-.26-.56,1.7,1.7,0,0,0-.3-.23,12.24,12.24,0,0,0-3.72-.28c-1.67,0-2.5.1-2.5.31v5.56a13.3,13.3,0,0,0,.32,3.27c0,.16.37.32,1,.47a6,6,0,0,0,1.27.23c.09,0,.14.18.14.53a1.61,1.61,0,0,1-.07.49c-2.35-.12-3.71-.17-4.08-.17-.12,0-1.53,0-4.22.17a.76.76,0,0,1-.14-.53c0-.32,0-.49.14-.49a6.13,6.13,0,0,0,1.35-.21c.6-.14.93-.3,1-.49a13.49,13.49,0,0,0,.25-3.17V59.74a13.13,13.13,0,0,0-.25-3c-.07-.19-.41-.37-1-.53a6,6,0,0,0-1.39-.25c-.09,0-.14-.14-.14-.42a1,1,0,0,1,.14-.6C271.43,55,272.82,55,274.39,55Z"/><path class="cls-1" d="M298,54.85l7,18.57c.42,1.1.76,1.94,1,2.53a1.81,1.81,0,0,0,1.09.86,4.15,4.15,0,0,0,1.3.33c.1,0,.14.22.14.67a1,1,0,0,1-.07.35c-2.34-.12-3.63-.17-3.86-.17l-4.08.17a.75.75,0,0,1-.13-.58c0-.29.07-.44.16-.44a4.26,4.26,0,0,0,1.06-.17c.42-.12.67-.27.74-.46a2.6,2.6,0,0,0,.07-.56,4.91,4.91,0,0,0-.13-1.08,6.9,6.9,0,0,0-.23-1l-.14-.39-1.44-4a.26.26,0,0,0-.21-.14c-.91-.07-1.8-.11-2.67-.11-1.22,0-2.71.06-4.46.18l-.18.1-1.51,3.87a9.3,9.3,0,0,0-.6,2.43.81.81,0,0,0,.28.7,2.57,2.57,0,0,0,1,.4,4.85,4.85,0,0,0,1,.16q.11,0,.12.42a1.75,1.75,0,0,1-.05.6c-2.34-.12-3.55-.17-3.62-.17h-1.23l-1.18.07-1.25.07a.76.76,0,0,1-.14-.53c0-.32,0-.49.14-.49a4.5,4.5,0,0,0,1.09-.17,1.74,1.74,0,0,0,.92-.5,14,14,0,0,0,1.65-3.3l6.12-15.72a4,4,0,0,1,.19-.56c.08-.26.15-.45.19-.58a5.08,5.08,0,0,1,.21-.49,2.76,2.76,0,0,1,.25-.44l.26-.32a.88.88,0,0,1,.36-.24,1.1,1.1,0,0,1,.44-.07Zm-4.1,12.69c1.22,0,2.05.07,2.5.07,1,0,2.1,0,3.2-.1l.1-.18-2.84-7.77-3,7.84C293.83,67.5,293.86,67.54,293.9,67.54Z"/><path class="cls-1" d="M314.15,54.92c1.61,0,2.93.07,4,.07s2.35,0,4-.07,2.87-.07,3.76-.07a11.08,11.08,0,0,0,2.43-.38l.67,5a1.18,1.18,0,0,1-.85.25c-.21,0-.33-.06-.35-.18A4.93,4.93,0,0,0,326.53,57a4.64,4.64,0,0,0-2.73-.58c-2.48,0-3.77.18-3.86.53a14.38,14.38,0,0,0-.32,3.52v12.7a13.3,13.3,0,0,0,.32,3.27c0,.16.37.32,1,.47a6,6,0,0,0,1.27.23c.09,0,.14.18.14.53a1.61,1.61,0,0,1-.07.49c-2.35-.12-3.71-.17-4.08-.17-.12,0-1.52.05-4.22.17a.76.76,0,0,1-.14-.53c0-.32.05-.49.14-.49a6.13,6.13,0,0,0,1.35-.21c.6-.14.94-.3,1-.49a14.27,14.27,0,0,0,.24-3.13V60.58a11.3,11.3,0,0,0-.31-3.62c-.19-.35-1.46-.53-3.8-.53a4.64,4.64,0,0,0-2.73.58,5,5,0,0,0-1.21,2.55c0,.12-.14.18-.35.18a1.15,1.15,0,0,1-.84-.25l.66-5a11.08,11.08,0,0,0,2.43.38C311.3,54.85,312.55,54.88,314.15,54.92Z"/><path class="cls-1" d="M333.88,59.67a14.27,14.27,0,0,0-.24-3.13c-.07-.19-.41-.36-1-.51a6.15,6.15,0,0,0-1.35-.23c-.09,0-.14-.15-.14-.46a.84.84,0,0,1,.14-.56l4.22.18q.56,0,4.08-.18a1.88,1.88,0,0,1,.07.53c0,.33,0,.49-.14.49a5.5,5.5,0,0,0-1.27.25c-.61.16-.94.33-1,.49a13.3,13.3,0,0,0-.32,3.27V73.17a13.3,13.3,0,0,0,.32,3.27c0,.16.37.32,1,.47a6,6,0,0,0,1.27.23c.09,0,.14.18.14.53a1.61,1.61,0,0,1-.07.49c-2.35-.12-3.71-.17-4.08-.17-.12,0-1.52.05-4.22.17a.76.76,0,0,1-.14-.53c0-.32.05-.49.14-.49a6.13,6.13,0,0,0,1.35-.21c.6-.14.94-.3,1-.49a14.27,14.27,0,0,0,.24-3.13Z"/><path class="cls-2" d="M285.47,25.31c-.43-5.8-5-12.39-11.94-11.45-3,.41-6.06,2.05-5.29,6.57,1.11-5.89,15.1-5.55,15.87,4.88.55,7.46-6.49,11.66-11.77,12-11,1.27-18.09-8.06-25.25-15.36C234.81,9.55,221.59,0,210.41,0c-10.87,0-15.22,5.26-17.57,10.24-11.26-1-19.55,3.68-22.34,11.35-2.79-7.67-11.08-12.32-22.34-11.35C145.81,5.26,141.46,0,130.59,0c-11.18,0-24.4,9.55-36.68,22-7.16,7.3-14.24,16.63-25.25,15.36-5.28-.35-12.32-4.55-11.77-12,.77-10.43,14.76-10.77,15.87-4.88.77-4.52-2.25-6.16-5.29-6.57C60.47,13,56,19.56,55.53,25.36,55,32,60.62,41.51,73,40.9,90.16,40,110.63,6.7,130.59,4c3.82-.52,13.18.18,15.8,6.63-5.82,1.15-8.07,4-9.57,6.56-2.65,4.38-2.43,8.92.16,10.71,2.85,2,7.62.55,10-3.43,2.26-4.31,3-9.43,1.62-12.69,8.92-.41,18.8,6.68,18.8,15.8S156.4,41.14,151.28,41c-6.14-.2-10.28-2-12.45-4.09.26,4.43,4.09,8.1,13.22,8.1,8.12,0,15.74-3.92,18.42-11.34C173.18,41.07,180.8,45,188.92,45c9.13,0,13-3.67,13.22-8.1C200,39,195.83,40.78,189.69,41c-5.12.17-16.12-4.18-16.12-13.39s9.88-16.21,18.8-15.8c-1.34,3.26-.64,8.38,1.62,12.69,2.41,4,7.18,5.4,10,3.43,2.59-1.79,2.81-6.33.16-10.71-1.5-2.59-3.75-5.41-9.57-6.56,2.62-6.45,12-7.15,15.8-6.63,20,2.69,40.43,36,57.62,36.89C280.38,41.51,286,32,285.47,25.31ZM139.22,25c-4.85-2,2.88-13.21,7.78-13.21C148.24,17.74,143.8,27,139.22,25Zm62.56,0c-4.58,2-9-7.3-7.77-13.25C198.9,11.79,206.63,23,201.78,25Z"/><path class="cls-2" d="M268,92.1c-17.19.86-37.66,34.2-57.62,36.89-3.82.52-13.18-.18-15.8-6.63,5.82-1.15,8.07-4,9.57-6.56,2.65-4.38,2.43-8.92-.16-10.71-2.85-2-7.62-.55-10,3.43-2.26,4.31-3,9.43-1.62,12.69-8.92.41-18.8-6.68-18.8-15.8s11-13.56,16.12-13.39c6.14.2,10.28,2,12.45,4.09-.26-4.43-4.09-8.1-13.22-8.1-8.12,0-15.74,3.92-18.42,11.34C167.82,91.93,160.2,88,152.08,88c-9.13,0-13,3.67-13.22,8.1C141,94,145.17,92.22,151.31,92c5.12-.17,16.12,4.18,16.12,13.39s-9.88,16.21-18.8,15.8c1.34-3.26.64-8.38-1.62-12.69-2.41-4-7.18-5.4-10-3.43-2.59,1.79-2.81,6.33-.16,10.71,1.5,2.59,3.75,5.41,9.57,6.56-2.62,6.45-12,7.15-15.8,6.63C110.62,126.3,90.19,93,73,92.1c-12.38-.61-18,8.9-17.47,15.59.43,5.8,4.95,12.39,11.94,11.45,3-.41,6.06-2,5.29-6.57-1.11,5.89-15.1,5.55-15.87-4.88-.55-7.46,6.49-11.66,11.77-12,11-1.27,18.09,8.06,25.25,15.36,12.28,12.41,25.5,22,36.68,22,10.87,0,15.22-5.26,17.57-10.24,11.26,1,19.55-3.68,22.34-11.35,2.79,7.67,11.08,12.32,22.34,11.35,2.35,5,6.7,10.24,17.57,10.24,11.18,0,24.4-9.55,36.68-22,7.16-7.3,14.24-16.63,25.25-15.36,5.28.35,12.32,4.55,11.77,12-.77,10.43-14.76,10.77-15.87,4.88-.77,4.52,2.25,6.16,5.29,6.57,7,.94,11.51-5.65,11.94-11.45C286,101,280.38,91.49,268,92.1ZM147,121.21c-4.89,0-12.62-11.16-7.77-13.25C143.8,106,148.24,115.26,147,121.21Zm47,0c-1.25-6,3.19-15.22,7.77-13.25C206.63,110.05,198.9,121.21,194,121.21Z"/></svg>